<?xml version="1.0" encoding="utf-8"?>
<!-- Generator: Adobe Illustrator 24.1.1, SVG Export Plug-In . SVG Version: 6.00 Build 0)  -->
<svg version="1.1" id="Capa_1" xmlns="http://www.w3.org/2000/svg" xmlns:xlink="http://www.w3.org/1999/xlink" x="0px" y="0px"
	 viewBox="0 0 1920 1080" style="enable-background:new 0 0 1920 1080;" xml:space="preserve">
<style type="text/css">
	.st0{fill:url(#XMLID_318_);}
	.st1{clip-path:url(#XMLID_319_);}
	.st2{fill:#FFFFFF;}
	.st3{fill:#F8615A;}
	.st4{opacity:0.15;fill:#222221;}
	.st5{fill:#B80D57;}
	.st6{fill:#FFD868;}
	.st7{fill:#721B65;}
	.st8{opacity:0.15;}
	.st9{fill:#222221;}
	.st10{opacity:0.25;fill:none;stroke:#222221;stroke-width:0.75;stroke-linecap:round;stroke-linejoin:round;stroke-miterlimit:10;}
	.st11{opacity:0.15;fill:none;stroke:#222221;stroke-linecap:round;stroke-linejoin:round;stroke-miterlimit:10;}
</style>
<g>
	
		<radialGradient id="XMLID_318_" cx="1129.906" cy="416.8502" r="867.7566" gradientTransform="matrix(1.1867 0 0 1.0974 -12.0063 -105.1546)" gradientUnits="userSpaceOnUse">
		<stop  offset="0" style="stop-color:#00AEFF"/>
		<stop  offset="1" style="stop-color:#0053B9"/>
	</radialGradient>
	<rect id="XMLID_1_" x="-8" y="-103" class="st0" width="1932" height="1191"/>
	<g id="XMLID_784_">
		<defs>
			<rect id="XMLID_783_" x="-8" y="-103" width="1932" height="1191"/>
		</defs>
		<clipPath id="XMLID_319_">
			<use xlink:href="#XMLID_783_"  style="overflow:visible;"/>
		</clipPath>
		<g id="XMLID_782_" class="st1">
			<g id="XMLID_626_">
				<path id="XMLID_629_" class="st2" d="M191.66,986.12c-0.5-0.24-1-0.48-1.5-0.71c-8.97-4.09-18.71-6.09-28.58-6.56
					c-13.21-28.22-32.18-54.89-41.28-67.02c6.57-6.18,9.76-11.85,7.27-15.95c-11.27-18.54-109.84,38.57-101.65,53.87
					c1.72,3.22,7.77,3.49,16.12,1.76c5.13,14.3,15.19,39.88,29.04,63.67c-14.06,15.43-20.16,35.02-8.46,57.27
					c33.52,63.77,154.96,45.32,163.15-25.26C228.57,1022.94,215.13,997.59,191.66,986.12z"/>
				<path id="XMLID_628_" class="st3" d="M182.57,997.46c-0.4-0.2-0.81-0.39-1.22-0.58c-7.66-3.49-15.99-5.12-24.43-5.38
					c-2.64-4.25-5.34-8.4-7.98-12.39c-0.97-1.46-2.92-2.09-4.66-1.49c-0.75,0.26-1.52,0.49-2.28,0.7
					c-3.72,1.01-7.58,1.57-11.24,2.77c-7.06,2.3-12.99,6.8-19,10.93c-6.01,4.13-12.56,8.08-19.99,8.96
					c-3.3,0.39-6.67,0.16-9.95,0.66c-0.01,0-0.02,0-0.03,0c-1.93,0.32-3.02,2.24-2.33,3.94c1.9,4.63,3.93,9.48,6.11,14.39
					c-12.16,12.71-17.7,29.04-7.91,47.66c27.25,51.85,125.98,36.85,132.64-20.53C212.57,1027.39,201.64,1006.78,182.57,997.46z"/>
				<path id="XMLID_627_" class="st4" d="M172.34,1060.32c-25.81,5.72-56.43-2.68-69.43-24.07c-8.05-13.25-8.5-29.13-10.03-44.26
					c-1.53-15.13-5-31.34-17.05-41.67c-7.19-6.16-17.27-10.1-21.26-18.38c-2.47-5.13-1.58-9.32,0.54-13.21
					c-18.56,12.02-32.48,24.89-29.19,31.03c1.72,3.22,7.77,3.49,16.12,1.76c5.13,14.3,15.19,39.88,29.04,63.67
					c-14.06,15.43-20.16,35.02-8.46,57.27c33.52,63.77,154.96,45.32,163.15-25.26c0.68-5.85,0.39-11.75-0.73-17.52
					C210.47,1044.02,192.85,1055.78,172.34,1060.32z"/>
			</g>
			<g id="XMLID_681_">
				<path id="XMLID_684_" class="st2" d="M1962.07,847.51c6.48-14.41-73.79-41.22-79.65-29.93c-1.25,2.41,1.41,5.83,6.41,9.57
					c-18.49,27.21-78.54,121.48-36.43,140.15c43.32,19.2,86.34-89.64,96.19-116.48C1955.54,851.58,1960.62,850.74,1962.07,847.51z"
					/>
				<path id="XMLID_683_" class="st5" d="M1924.37,864.65c-8.47-4.03-18.34-5.09-26.66-9.37c-3.94-2.03-7.45-4.46-11.08-6.68
					c-0.93-0.57-2.18-0.3-2.75,0.58c-17.61,26.81-56.61,92.59-25.4,106.43c31.13,13.8,62.06-55.17,73.69-84.77
					c0.3-0.77,0.01-1.63-0.71-2.1C1929.17,867.25,1926.85,865.83,1924.37,864.65z"/>
				<path id="XMLID_682_" class="st4" d="M1893.13,952.97c-12.01-1.46-24.15-6.38-29.77-16.16c-5.32-9.26-3.59-20.55-0.68-30.68
					c7.82-27.22,23.28-52.54,44.44-72.79c-3.86-2.61-5.43-7.75-3.62-11.84c0.85-1.93,2.46-3.22,4.33-4.2
					c-12.84-2.98-23.42-3.54-25.41,0.3c-1.25,2.41,1.41,5.83,6.41,9.57c-18.49,27.21-78.54,121.48-36.43,140.15
					C1866.38,973.5,1880.32,966.37,1893.13,952.97z"/>
			</g>
			<g id="XMLID_30_">
				<path id="XMLID_37_" class="st2" d="M1137.19,1060.05c10.57-15.73,29.08-43.66,33.04-50.74c0.16,0.04,0.26,0.05,0.34,0.05
					c6.48,1.51,11.47,1.33,13.51-1.45c8.99-12.21-65.67-51.55-73.89-40.65c-1.77,2.35,0.22,6.19,4.54,10.62
					c-6.33,6.88-26.92,32.45-37.52,45.66c-32.97,6.05-72.2,21.04-76.72,36.81c-7.18,25,86.64,96.91,124.22,79.98
					C1143.99,1131.66,1144.2,1091.14,1137.19,1060.05z"/>
				<path id="XMLID_34_" class="st6" d="M1133.32,1067.84c-0.21-1.17-0.97-2.18-2.03-2.84c-0.01,0-0.01-0.01-0.02-0.01
					c-5.78-3.6-10.45-8.51-15.84-12.59c-6.73-5.1-14.5-8.88-22.21-12.61c-5.15-2.49-14.24-5.19-19.77-8.98
					c-1.11-0.76-2.5-1.06-3.84-0.76c-27.57,6.24-56.97,18.54-60.66,31.4c-6.46,22.5,77.97,87.21,111.79,71.98
					C1136.74,1126.23,1138.15,1094.66,1133.32,1067.84z"/>
				<path id="XMLID_31_" class="st4" d="M1078.45,1090.15c-7.9-8.95-12.28-21.33-9.84-32.83c2.6-12.24,51.74-59.62,55.91-62.57
					c0.71-0.51,10.81-5.45,10.85-4.2c0-0.05,0-0.1,0-0.14c-0.17-5.99,1.46-11.39,5.64-16.11c0.33-0.37,0.68-0.73,1.05-1.08
					c-14.83-6.68-28.59-10.28-31.85-5.95c-1.77,2.35,0.22,6.19,4.54,10.62c-6.33,6.88-26.92,32.45-37.52,45.66
					c-32.97,6.05-72.2,21.04-76.72,36.81c-7.18,25,86.64,96.91,124.22,79.98c6.56-2.95,10.91-9.6,13.52-18.31
					C1133.52,1117.77,1088.76,1101.84,1078.45,1090.15z"/>
			</g>
			<g id="XMLID_58_">
				<path id="XMLID_47_" class="st2" d="M1395.16,814.78c-7.32-16.17-14.45-31.58-17.32-36.86c0.16-0.12,0.26-0.21,0.31-0.29
					c6.44-4.98,9.9-9.81,8.35-13.77c-6.81-17.45-105.1,23.78-99.15,39.55c1.28,3.4,6.97,4.35,15.03,3.56
					c1.49,5.65,5.61,18.44,10.2,32.23c-45.78,47.81-29.29,145.1,73.44,135.64C1509.93,963.42,1497.46,828.95,1395.16,814.78z"/>
				<path id="XMLID_40_" class="st5" d="M1445.48,863.37c-9.9,3.75-20.56,6.51-28.73,12.89c-5.18,4.05-9.36,9.54-15.69,11.8
					c-7.98,2.84-16.98-0.29-25.46,0.71c-17.95,2.12-29.78,21.9-47.88,21.88c-7.46-0.01-14.17-2.88-21.33-1.93
					c-1.71,0.23-2.87,1.7-2.57,3.27c5.69,29.83,31.5,54.89,81.26,50.31c70.82-6.52,88.93-60.62,66.49-98.66
					c-0.73-1.23-2.38-1.74-3.77-1.17C1447.02,862.77,1446.25,863.08,1445.48,863.37z"/>
				<path id="XMLID_44_" class="st4" d="M1464.87,858.44c-4.3,4.14-7.2,9.84-10.15,15.05c-8.28,14.63-19.92,28-35.26,36.44
					c-15.34,8.44-34.68,11.46-51.43,5.75c-16.75-5.71-29.89-20.99-29.68-37.5c0.1-7.85,2.99-15.4,4.7-23.09
					c4.35-19.61,0.69-40.66-10.08-58.02c-7.74-4.22-12.44-12.55-12.39-20.81c-19.81,9.38-35.73,20.51-33.23,27.14
					c1.28,3.4,6.97,4.35,15.03,3.56c1.49,5.65,5.61,18.44,10.2,32.23c-45.78,47.81-29.29,145.1,73.44,135.64
					C1469.61,967.13,1491.13,903.43,1464.87,858.44z"/>
			</g>
			<g id="XMLID_54_">
				<path id="XMLID_48_" class="st2" d="M81.86,32.75C71.24,13.78,53.62-17.79,49.55-23.81c0.12-0.11,0.19-0.19,0.22-0.25
					c4.71-4.38,7.07-8.45,5.53-11.49C48.51-48.92-26.12-9.54-20.15,2.55c1.29,2.61,5.88,2.97,12.2,1.8
					c2.74,7.29,15.93,35.79,24.41,54.19C-1.02,81.4-2.3,114.6,13.7,137.19c4.01,5.66,11.95,7.71,18.57,4.83l107.82-46.79
					c6.65-2.89,10.05-9.88,7.82-16.36C139.74,55.08,116.31,34.96,81.86,32.75z"/>
				<path id="XMLID_46_" class="st7" d="M61.28,40.47c-46.26,6.37-60.59,57.83-39.55,87.54c3.39,4.79,10.09,6.51,15.69,4.08
					l91.11-39.54c5.62-2.44,8.49-8.35,6.61-13.83C126.9,54.72,100.25,35.11,61.28,40.47z"/>
				<path id="XMLID_38_" class="st4" d="M143.83,69.58c-0.43,0.43-0.86,0.87-1.29,1.3c-13.97,14.26-31.9,26.38-52.53,28.86
					c-20.63,2.48-43.82-7.08-50.96-25.15C34.74,63.66,36.63,51.6,35.78,40c-0.8-11.06-4.75-21.7-9.84-31.73
					C18.02-7.34,9.73-3.34,4.41-10.89c-1.66-2.35-1.78-5.9-2.19-9.25c-14.07,8.5-24.78,17.82-22.37,22.69
					c1.29,2.61,5.88,2.97,12.2,1.8c2.74,7.29,15.93,35.79,24.41,54.19C-1.02,81.4-2.3,114.6,13.7,137.19
					c4.01,5.66,11.95,7.71,18.57,4.83l107.82-46.79c6.65-2.89,10.05-9.88,7.82-16.36C146.82,75.69,145.45,72.58,143.83,69.58z"/>
			</g>
			<g id="XMLID_51_">
				<g id="XMLID_35_">
					<path id="XMLID_28_" class="st3" d="M377.83,878.33c-102.96,18.41-85.26,179.07,33.84,159.58
						C533.26,1018.01,500.1,856.46,377.83,878.33z"/>
					<g id="XMLID_32_">
						<path id="XMLID_36_" class="st5" d="M470.63,908.85c-5.19-6.67-11.47-12.66-18.84-17.61c-0.81,0.34-1.62,0.68-2.41,1.04
							c-8.15,3.7-15.68,8.52-24.05,11.77c-16.93,6.58-36.22,6.37-53.19,12.87c-12.24,4.69-22.8,12.71-35.27,16.86
							c-7.87,2.62-16.24,3.62-24.38,5.41c-2.52,11.17-2.79,22.84-0.84,34.1c1.01-0.76,2.04-1.5,3.11-2.11
							c4.76-2.73,10.06-4.54,15.43-5.94c8.53-2.23,17.37-3.56,25.57-6.67c18.66-7.07,32.82-22.87,52.35-27.52
							c7.93-1.89,16.3-1.8,24.21-3.77c7.47-1.86,14.26-5.5,20.95-9.09C459.06,915.07,464.84,911.96,470.63,908.85z"/>
						<path id="XMLID_42_" class="st5" d="M429.82,880.74c-14.82-4.67-32.24-5.95-51.99-2.42c-27.02,4.83-45.72,19.47-56.46,38.06
							c1.28-0.48,2.58-0.9,3.88-1.25c7.64-2.05,15.73-2.42,23.34-4.57c18.88-5.35,33.13-21.16,52.5-24.73
							c6.94-1.28,14.16-0.88,21.06-2.33C424.79,882.96,427.45,882.03,429.82,880.74z"/>
						<path id="XMLID_49_" class="st5" d="M411.67,1037.91c43.1-7.05,66.73-31.91,73.86-60.08c-1.6-0.46-3.29-0.65-5.01-0.47
							c-2.17,0.23-4.23,0.97-6.27,1.71c-3.69,1.34-7.37,2.67-11.06,4.01c-4.62,1.67-9.28,3.37-13.37,5.97
							c-5.56,3.53-9.79,8.54-14.64,12.88c-12.1,10.8-28.49,17.39-45.29,18.19c-6.74,0.32-13.67-0.23-20.07,1.73
							c-4.34,1.32-9.76,4.77-10.9,9.16c-0.23,0.89-0.22,1.69-0.05,2.42C373.35,1039.23,390.98,1041.29,411.67,1037.91z"/>
						<path id="XMLID_50_" class="st5" d="M472.74,925.99c-5.49,3.16-9.97,7.58-14.53,11.83c-4.56,4.24-9.36,8.44-15.22,10.97
							c-9.2,3.97-19.95,3.43-29.56,6.47c-11.08,3.51-19.72,11.42-29.38,17.54c-12.31,7.79-26.68,12.78-41.49,14.41
							c-5.39,0.59-10.87,0.75-16.11,2.07c-3.15,0.79-6.25,2.09-8.81,3.94c4.39,9.94,10.75,19.01,19.03,26.44
							c3.37-1.34,6.32-3.53,9.45-5.35c14.67-8.51,33.47-8.57,48.71-16.17c11.2-5.58,19.69-14.84,30.13-21.56
							c18.78-12.08,42.76-15.34,62.51-25.85c-0.98-9.53-3.67-18.92-7.95-27.65C477.14,923.77,474.84,924.78,472.74,925.99z"/>
						<path id="XMLID_69_" class="st4" d="M477.66,919.51c-19.63,15.02-41,28.42-64.99,36.23c-26.18,8.53-55.93,9.88-81.29-0.56
							c-7.13-2.93-13.81-6.9-19.74-11.65c-8.53,49.51,26.33,106.44,100.03,94.38C484.53,1025.99,501.8,963.21,477.66,919.51z"/>
					</g>
				</g>
				<g id="XMLID_19_">
					<path id="XMLID_33_" class="st6" d="M498.13,877.69c-16.35-2.86-37.53,0.83-58.27,6.89c6.33,2.9,12.08,6.47,17.23,10.57
						c21.39-5.05,37.44-4.88,42.01,3.66c18.67,34.86-198.43,123.83-211.5,100.74c-4.39-7.77,5.5-20.14,23.09-33.78
						c-0.53-6.29-0.39-12.64,0.44-18.91c-4.68,3.3-9.06,6.57-13.08,9.79c-35.14,28.24-35.29,46.95-29.22,57.66
						c3.58,6.33,12.51,13.65,34.67,12.55c10.6-0.53,23.92-2.93,39.59-7.15c28.34-7.63,62.24-20.53,92.99-35.41
						c93.89-45.42,94.84-76.5,87.05-90.97C518.75,885.19,510.11,879.79,498.13,877.69z"/>
					<path id="XMLID_52_" class="st4" d="M438.27,955.04c24.72-6.3,47.26-19.91,63.18-38.52c5.32-6.23,10.08-14.65,6.26-21.75
						c-3.23-6.02-11.25-8.27-18.47-8.99c-13.1-1.31-26.63,0.95-39.5,4.15c2.57,1.62,5.03,3.36,7.35,5.22
						c21.39-5.05,37.44-4.88,42.01,3.66C506.46,912.54,477.21,934.67,438.27,955.04z"/>
					<path id="XMLID_53_" class="st4" d="M498.93,946.41c-46.35,25.32-96.14,44.91-146.83,61.68c-16.67,5.52-34.14,10.81-51.72,8.93
						c-15.9-1.71-24.33-9.64-34.06-19.1c-1.27,6.75,0.14,12.19,2.52,16.39c3.58,6.33,12.51,13.65,34.67,12.55
						c10.6-0.53,23.92-2.93,39.59-7.15c28.34-7.63,62.24-20.53,92.99-35.41C465.06,970.28,485.18,957.63,498.93,946.41z"/>
				</g>
			</g>
			<g id="XMLID_71_">
				<path id="XMLID_80_" class="st5" d="M113.76,452.12C-8.87,418.16-88.04,601.18,52.7,642.42
					C196.37,684.53,259.37,492.45,113.76,452.12z"/>
				<g id="XMLID_74_">
					<path id="XMLID_79_" class="st6" d="M174.31,540.29c-13.37,0.78-26.19-4.47-39.35-6.8c-18.02-3.19-36.58-0.87-54.75,1.46
						c-17.2,2.2-34.4,4.41-51.6,6.61c-3.05,0.39-7.01,1.81-6.58,4.63c0.36,2.37,3.56,3.17,6.13,3.43
						c16.61,1.72,33.21,3.45,49.82,5.17c18.6,1.93,37.31,3.87,56,2.85c12.97-0.7,25.84-2.82,38.83-2.94
						c8-0.07,15.61,0.91,23.22,2.85c0.71-7.01,0.68-14.09-0.18-21.1c-0.88,0.14-1.76,0.3-2.62,0.46
						C186.94,538.15,180.73,539.91,174.31,540.29z"/>
					<path id="XMLID_78_" class="st6" d="M119.52,506.2c-14.79-8.04-30.07-15.61-46.84-18.63c-21.64-3.89-44.43,0.07-65.79-4.98
						c-5.71,6.25-10.68,13.1-14.83,20.36c5.37-0.94,10.83-1.65,16.85-1.82c27.68-0.79,55.47,1.87,82.37,7.93
						c8.84,1.99,18.37,4.29,27.09,2.96C121.5,511.55,122.25,507.68,119.52,506.2z"/>
					<path id="XMLID_77_" class="st6" d="M125.18,591.01l-52.78-0.58c-16.34-0.18-32.71-0.36-48.94-2.1
						c-11.79-1.26-23.57-3.35-35.43-2.79c-1.44,0.07-2.91,0.19-4.38,0.35c3.68,9.36,9.19,18.23,16.69,26.23
						c8.48,0.51,16.95,1.56,25.42,0.42c14.49-1.94,26.9-10.78,41.19-13.72c11.2-2.31,22.84-0.86,34.3-0.54
						c8.36,0.23,17.12-0.28,24.8-3.06C128.46,594.36,127.76,591.04,125.18,591.01z"/>
					<path id="XMLID_76_" class="st6" d="M153.89,622.77c-9.42-2.5-18.54-6.27-28.29-7.16c-24.71-2.24-47.78,14.32-72.57,13.13
						c-9.4-0.45-18.61-3.48-28.01-3.03c-2.29,0.11-4.64,0.54-6.88,1.24c9.61,6.25,21.06,11.51,34.56,15.47
						c45.45,13.32,82.81,3.19,108.07-18.15C158.44,623.88,156.13,623.36,153.89,622.77z"/>
					<path id="XMLID_75_" class="st6" d="M113.76,452.12c-36.53-10.12-69.2-0.97-93.35,17.93c10.5,2.75,23.55,2.04,31.54,0.69
						c12.83-2.18,25.72-6.13,38.62-4.34c12.07,1.67,22.67,8.2,34.34,11.5c10.95,3.1,24.89,2.23,31.59-5.97
						C144.96,463.66,130.81,456.84,113.76,452.12z"/>
				</g>
				<path id="XMLID_73_" class="st4" d="M159.61,591.5c-45.18,4.39-93.57-12.05-120.19-46.1c-19.77-25.28-21.25-51.33-15.48-78
					c-60.02,43.17-72.06,145.46,28.76,175.01c66.85,19.59,116.22-11.53,135.25-54.46C178.5,588.85,169.08,590.58,159.61,591.5z"/>
			</g>
			<g id="XMLID_39_">
				<path id="XMLID_93_" class="st5" d="M1728.3,888.82c0-10.3-8.3-18.55-23.99-23.86c-0.26-0.09-0.53-0.17-0.79-0.25
					c6.85-13.85,6.33-25.01-1.53-32.27c-6.18-5.72-14.76-7.27-25.5-4.61c-3.95,0.98-8.16,2.54-12.58,4.62
					c-4.61-12.65-12.01-25.75-22.9-25.75c-11.88,0-19.61,15.6-24.09,29.18c-5.75-2.67-11.14-4.67-15.92-5.86
					c-9.61-2.38-16.66-1.57-20.96,2.41c-4.3,3.98-5.18,10.5-2.61,19.38c1.3,4.5,3.51,9.56,6.47,14.98
					c-14.23,4.18-30.16,11.26-30.16,22.03c0,10.76,15.93,17.85,30.16,22.03c-2.96,5.41-5.17,10.48-6.47,14.98
					c-2.57,8.88-1.7,15.41,2.61,19.38c2.9,2.68,6.84,3.76,11.29,3.76c6.77,0,14.75-2.5,22.12-5.65c0.55,1.76,1.13,3.44,1.76,5.05
					c5.74,14.76,14.66,22.57,25.81,22.57c11.14,0,20.07-7.8,25.81-22.57c0.21-0.53,0.4-1.08,0.6-1.62c3.15,1.32,6.18,2.35,9.07,3.06
					c3.4,0.84,6.58,1.26,9.54,1.26c6.39,0,11.74-1.96,15.96-5.87c6.18-5.72,7.86-13.65,4.98-23.58c-0.8-2.76-1.97-5.67-3.46-8.69
					c0.26-0.09,0.53-0.17,0.79-0.25C1720,907.37,1728.3,899.12,1728.3,888.82z M1677.5,831.31c9.3-2.3,16.61-1.07,21.74,3.67
					c7.38,6.83,6.36,17.18,0.58,28.6c-8.27-2.33-18.08-3.94-29.07-4.79c-1.38-7.79-3.15-15.15-5.26-21.76
					c-0.12-0.37-0.24-0.74-0.36-1.11C1669.41,833.86,1673.57,832.28,1677.5,831.31z M1670.34,900.05c-0.34,0.32-0.67,0.63-1.01,0.95
					c-5.79,5.35-11.77,10.35-17.76,14.94c-8.13-0.01-16.14-0.37-23.84-1.03c-5.59-5.17-10.99-10.68-16.04-16.32
					c0.01-7.01,0.34-13.92,0.95-20.61c4.77-5.27,9.85-10.41,15.09-15.26c7.71-0.66,15.73-1.02,23.86-1.03
					c6.1,4.67,12.07,9.68,17.67,14.85c0.7,7.26,1.09,14.81,1.09,22.47C1670.35,899.37,1670.34,899.71,1670.34,900.05z
					 M1663.27,866.34c-1.85-1.56-3.72-3.08-5.6-4.57c3.33,0.07,6.57,0.21,9.72,0.4c0.47,2.87,0.89,5.81,1.26,8.82
					C1666.91,869.44,1665.12,867.89,1663.27,866.34z M1652.95,858.11c-3.57-2.7-7.16-5.26-10.72-7.67
					c6.51-5.01,13.05-9.36,19.36-12.72c2.03,6.21,3.78,13.23,5.17,20.81C1662.32,858.26,1657.71,858.13,1652.95,858.11z
					 M1646.84,858.15c-4.93,0.09-9.86,0.31-14.75,0.65c2.35-2.07,4.73-4.07,7.12-5.98C1641.75,854.52,1644.3,856.3,1646.84,858.15z
					 M1625.98,859.28c-3.74,0.34-7.43,0.75-11.05,1.23c1.21-6.98,2.72-13.51,4.47-19.4c5.35,2.7,10.92,5.93,16.55,9.56
					C1632.64,853.35,1629.31,856.22,1625.98,859.28z M1621.69,863.31c-1.66,1.6-3.33,3.24-4.98,4.93c-1.16,1.18-2.3,2.36-3.42,3.55
					c0.3-2.57,0.65-5.1,1.03-7.58C1616.73,863.88,1619.19,863.58,1621.69,863.31z M1608.88,876.58c-2.75,3.06-5.37,6.14-7.85,9.21
					c-4.39-5.69-8.28-11.35-11.49-16.76c6.29-1.66,13.29-3.09,20.78-4.24C1609.75,868.65,1609.27,872.59,1608.88,876.58z
					 M1608.36,882.85c-0.26,3.77-0.43,7.57-0.51,11.36c-1.52-1.79-3.01-3.58-4.44-5.38C1605,886.83,1606.66,884.83,1608.36,882.85z
					 M1607.8,899.85c0.02,4.36,0.16,8.59,0.42,12.67c-6.7-1.09-12.98-2.41-18.68-3.91c3.21-5.41,7.1-11.07,11.49-16.76
					C1603.19,894.52,1605.45,897.19,1607.8,899.85z M1611.76,904.22c1.61,1.74,3.26,3.47,4.95,5.18c1.66,1.69,3.32,3.33,4.99,4.93
					c-3.25-0.35-6.43-0.75-9.53-1.2C1611.96,910.24,1611.83,907.26,1611.76,904.22z M1625.98,918.37c3.33,3.05,6.65,5.92,9.94,8.59
					c-6.93,4.46-13.67,8.21-19.93,11.15c-1.65-6.32-2.84-13.47-3.54-21.3C1616.87,917.43,1621.39,917.95,1625.98,918.37z
					 M1632.08,918.85c4.88,0.34,9.81,0.56,14.73,0.65c-2.55,1.86-5.1,3.64-7.62,5.33C1636.81,922.91,1634.43,920.91,1632.08,918.85z
					 M1652.97,919.54c5.7-0.02,11.18-0.22,16.41-0.59c-0.87,8.48-2.33,16.13-4.34,22.74c-7.36-3.55-15.1-8.54-22.8-14.47
					C1645.82,924.79,1649.41,922.23,1652.97,919.54z M1657.68,915.87c4.3-3.41,8.52-6.99,12.58-10.67
					c-0.1,3.47-0.28,6.85-0.55,10.11C1665.84,915.6,1661.83,915.78,1657.68,915.87z M1674.22,901.54c3.51-3.33,6.78-6.64,9.81-9.91
					c5.69,6.48,10.5,12.97,14.02,19.17c-7.05,1.94-15.27,3.35-24.42,4.19C1673.97,910.68,1674.17,906.19,1674.22,901.54z
					 M1674.22,896.33c-0.06-5.26-0.3-10.54-0.72-15.76c2.79,2.72,5.46,5.47,7.99,8.23C1679.16,891.35,1676.72,893.87,1674.22,896.33
					z M1673,874.94c-0.44-4.23-0.98-8.41-1.63-12.48c10.06,0.82,19.07,2.29,26.7,4.39c-3.59,6.26-8.46,12.76-14.05,19.13
					C1680.65,882.33,1676.96,878.64,1673,874.94z M1641.02,810.3c7.19,0,14.08,9.28,19.37,23.91c-6.82,3.56-14.04,8.3-21.43,14.06
					c-6.34-4.12-12.57-7.73-18.47-10.67C1625.91,821.03,1633.29,810.3,1641.02,810.3z M1582.79,834.98
					c2.15-1.98,5.27-2.67,8.58-2.67c2.93,0,5.99,0.54,8.63,1.19c4.82,1.19,10.17,3.21,15.84,5.87c-1.99,6.65-3.65,13.98-4.94,21.69
					c-8.28,1.22-16.13,2.8-23.24,4.69c-2.94-5.32-5.16-10.35-6.47-14.87C1579.69,845.7,1578.75,838.72,1582.79,834.98z
					 M1557.64,888.82c0-7.03,11.02-13.75,28.13-18.74c3.51,5.98,7.85,12.31,12.86,18.74c-5.01,6.43-9.36,12.76-12.86,18.74
					C1568.66,902.57,1557.64,895.85,1557.64,888.82z M1582.79,942.66c-4.05-3.74-3.1-10.72-1.6-15.91
					c1.31-4.51,3.53-9.54,6.47-14.87c6.42,1.71,13.43,3.16,20.83,4.33c0.74,8.67,2.06,16.57,3.92,23.5
					C1598.67,945.64,1587.67,947.17,1582.79,942.66z M1663.16,947.15c-5.21,13.39-12.66,20.18-22.14,20.18s-16.94-6.79-22.14-20.18
					c-0.67-1.71-1.28-3.53-1.86-5.42c0.97-0.45,1.92-0.9,2.85-1.36c6.16-3.04,12.61-6.76,19.1-10.99c8.66,6.75,17.1,12.1,24.92,15.8
					C1663.65,945.85,1663.41,946.51,1663.16,947.15z M1703.22,922.56c2.49,8.6,1.15,15.36-3.97,20.1
					c-5.13,4.74-12.44,5.98-21.74,3.67c-2.87-0.71-5.85-1.74-8.91-3.04c2.22-7.12,3.81-15.44,4.72-24.66
					c9.95-0.89,18.88-2.42,26.49-4.57C1701.27,916.99,1702.43,919.83,1703.22,922.56z M1686.58,888.81
					c6.42-7.25,11.55-14.27,15.22-20.85c0.39,0.13,0.79,0.25,1.17,0.38c14.22,4.81,21.43,11.7,21.43,20.48
					c0,8.78-7.21,15.67-21.43,20.48c-0.38,0.13-0.78,0.25-1.17,0.38C1698.13,903.1,1692.98,896.05,1686.58,888.81z"/>
				<g id="XMLID_41_">
					<g id="XMLID_90_">
						<path id="XMLID_92_" class="st6" d="M1646.86,867.71c-26.95-7.46-44.34,32.75-13.42,41.82
							C1665.01,918.78,1678.85,876.58,1646.86,867.71z"/>
						<path id="XMLID_91_" class="st4" d="M1663.86,895.76c-5.76,1.9-12.13,2.22-18.08,0.85c-6.69-1.54-12.79-5.19-17.05-10.2
							c-2.89-3.4-5.02-7.56-5.06-11.94c0-0.13,0-0.26,0.01-0.39c-10.03,10.58-10.31,29.57,9.76,35.45
							C1649.05,914.11,1660.32,906.1,1663.86,895.76z"/>
					</g>
					<g id="XMLID_68_">
						<path id="XMLID_89_" class="st6" d="M1669.14,836.9c-12.82-3.55-21.1,15.59-6.39,19.9
							C1677.78,861.2,1684.37,841.12,1669.14,836.9z"/>
						<path id="XMLID_88_" class="st4" d="M1669.8,850.28c-7.58-2.22-9.05-8.37-6.95-13.33c-8.74,2.73-12.2,16.3-0.09,19.85
							c7.31,2.14,12.62-1.52,14.39-6.32C1675.03,851.07,1672.56,851.09,1669.8,850.28z"/>
					</g>
					<g id="XMLID_56_">
						<path id="XMLID_62_" class="st6" d="M1570.94,892.19c-12.82-3.55-21.1,15.59-6.39,19.9
							C1579.58,916.49,1586.17,896.4,1570.94,892.19z"/>
						<path id="XMLID_57_" class="st4" d="M1571.6,905.57c-7.58-2.22-9.05-8.37-6.95-13.33c-8.74,2.73-12.2,16.3-0.09,19.85
							c7.31,2.14,12.62-1.52,14.39-6.32C1576.83,906.36,1574.36,906.38,1571.6,905.57z"/>
					</g>
					<g id="XMLID_43_">
						<path id="XMLID_55_" class="st6" d="M1704.66,931.38c-12.82-3.55-21.1,15.59-6.39,19.9
							C1713.3,955.68,1719.89,935.6,1704.66,931.38z"/>
						<path id="XMLID_45_" class="st4" d="M1705.32,944.76c-7.58-2.22-9.05-8.37-6.95-13.33c-8.74,2.73-12.2,16.3-0.09,19.85
							c7.31,2.14,12.62-1.52,14.39-6.32C1710.55,945.55,1708.08,945.57,1705.32,944.76z"/>
					</g>
				</g>
			</g>
			<g id="XMLID_67_">
				<path id="XMLID_72_" class="st2" d="M625.26-84.08c10.33-19.17-130.04-75.18-136.62-62.98c-1.18,2.19,2.14,6.24,8.42,11.29
					c-14.65,23.5-69.04,111.84-67.33,125.81c1.97,16.14,95.83,58.87,112.01,51.64c13.63-6.09,54.67-95.36,67.23-123.27
					C617.41-80.06,623.38-80.58,625.26-84.08z"/>
				<path id="XMLID_87_" class="st6" d="M563.04-34.88c-3.67-2.05-6.19-5.43-9.36-8.09c-14.7-12.39-40.26-7.82-54.43-20.72
					c-4.58-4.17-7.36-9.7-11.25-14.43c-2.3-2.8-4.78-4.33-7.44-5.62c-0.8-0.39-1.78-0.13-2.21,0.6
					c-16.25,27.5-34.12,59.73-33.22,67.08c1.63,13.36,79.31,48.72,92.7,42.74c6.76-3.02,21.65-30.73,34.74-57.44
					c0.49-0.99-0.3-2.13-1.48-2.13C568.28-32.88,565.51-33.49,563.04-34.88z"/>
				<path id="XMLID_83_" class="st4" d="M541.74,41.67c4.32-1.93,11.41-12.24,19.46-26.29c-4.96-0.6-10.33,0.04-15.41,0.14
					c-22.41,0.44-44.52-12.02-54.37-30.63c-9.85-18.61-6.93-42.4,7.18-58.5c6.03-6.87,13.75-12.28,20.5-18.56
					c6.47-6.02,12.34-13.32,13.71-21.92c1.09-6.78-0.47-13.49,1.95-20.15c0.45-1.24,1.07-2.45,1.72-3.66
					c-24.65-8.84-45.4-13.67-47.83-9.16c-1.18,2.19,2.14,6.24,8.42,11.29c-14.65,23.5-69.04,111.84-67.33,125.81
					C431.7,6.17,525.56,48.9,541.74,41.67z"/>
			</g>
			<g id="XMLID_654_">
				<path id="XMLID_680_" class="st2" d="M195.11,155.47c-0.21-1.93-2.08-3.33-4.15-3.14c-2.08,0.19-3.6,1.91-3.39,3.84l9.83,90.61
					l-76.74,25.43l-11.76-82.87c-0.27-1.92-2.17-3.28-4.25-3.02c-2.07,0.25-3.54,2.01-3.26,3.93l11.45,80.67l-87.38-40.02
					c-1.88-0.86-4.15-0.15-5.08,1.59c-0.93,1.73-0.16,3.84,1.71,4.7l86.38,39.56l-86.81,34.38c-1.92,0.76-2.82,2.82-1.99,4.6
					c0.62,1.33,2.01,2.13,3.48,2.13c0.5,0,1-0.09,1.49-0.28l91.47-36.22l51.64,71.46L88.5,386.14c-1.9,0.8-2.75,2.88-1.88,4.64
					c0.64,1.29,2.01,2.05,3.45,2.05c0.52,0,1.06-0.1,1.57-0.31l83.31-35.04c1.01-0.42,1.77-1.24,2.08-2.23
					c0.3-0.99,0.12-2.05-0.49-2.91l-53.17-73.58l79.39-26.31c1.64-0.54,2.67-2.05,2.49-3.65L195.11,155.47z"/>
				<g id="XMLID_655_">
					<g id="XMLID_677_">
						<path id="XMLID_679_" class="st3" d="M37.01,203.8c-38.61-10.69-63.53,46.93-19.22,59.92
							C63.02,276.97,82.86,216.5,37.01,203.8z"/>
						<path id="XMLID_678_" class="st4" d="M39,244.1c-22.82-6.69-27.25-25.2-20.93-40.14c-26.32,8.23-36.73,49.07-0.28,59.75
							c22.02,6.45,37.98-4.57,43.32-19.04C54.76,246.47,47.32,246.54,39,244.1z"/>
					</g>
					<g id="XMLID_674_">
						<path id="XMLID_676_" class="st5" d="M126.85,246c-38.61-10.69-63.53,46.93-19.22,59.92
							C152.87,319.17,172.7,258.69,126.85,246z"/>
						<path id="XMLID_675_" class="st4" d="M128.85,286.29c-22.82-6.69-27.25-25.2-20.93-40.14c-26.32,8.23-36.73,49.07-0.28,59.75
							c22.02,6.45,37.98-4.57,43.32-19.04C144.61,288.66,137.16,288.73,128.85,286.29z"/>
					</g>
					<g id="XMLID_671_">
						<path id="XMLID_673_" class="st7" d="M29.04,295.29C4.71,288.55-11,324.86,16.92,333.05
							C45.43,341.4,57.93,303.29,29.04,295.29z"/>
						<path id="XMLID_672_" class="st4" d="M30.29,320.68c-14.38-4.21-17.17-15.88-13.19-25.29c-16.59,5.18-23.14,30.92-0.18,37.65
							c13.87,4.07,23.93-2.88,27.3-12C40.22,322.18,35.53,322.22,30.29,320.68z"/>
					</g>
					<g id="XMLID_668_">
						<path id="XMLID_670_" class="st7" d="M207.35,230.1c-24.33-6.74-40.04,29.57-12.11,37.76
							C223.75,276.21,236.24,238.1,207.35,230.1z"/>
						<path id="XMLID_669_" class="st4" d="M208.61,255.49c-14.38-4.21-17.17-15.88-13.19-25.29c-16.59,5.18-23.14,30.92-0.18,37.65
							c13.87,4.07,23.93-2.88,27.3-12C218.54,256.98,213.85,257.03,208.61,255.49z"/>
					</g>
					<g id="XMLID_665_">
						<path id="XMLID_667_" class="st5" d="M111.03,170.74C86.7,164,70.99,200.31,98.91,208.5
							C127.42,216.85,139.92,178.74,111.03,170.74z"/>
						<path id="XMLID_666_" class="st4" d="M112.28,196.14c-14.38-4.21-17.17-15.88-13.19-25.29c-16.59,5.18-23.14,30.92-0.18,37.65
							c13.87,4.07,23.93-2.88,27.3-12C122.21,197.63,117.52,197.67,112.28,196.14z"/>
					</g>
					<g id="XMLID_662_">
						<path id="XMLID_664_" class="st6" d="M200.34,136.29c-24.33-6.74-40.04,29.57-12.11,37.76
							C216.74,182.4,229.24,144.3,200.34,136.29z"/>
						<path id="XMLID_663_" class="st4" d="M201.6,161.69c-14.38-4.21-17.17-15.88-13.19-25.29c-16.59,5.18-23.14,30.92-0.18,37.65
							c13.87,4.07,23.93-2.88,27.3-12C211.53,163.18,206.84,163.22,201.6,161.69z"/>
					</g>
					<g id="XMLID_659_">
						<path id="XMLID_661_" class="st6" d="M95.34,370.27c-24.33-6.74-40.04,29.57-12.11,37.76
							C111.73,416.38,124.23,378.27,95.34,370.27z"/>
						<path id="XMLID_660_" class="st4" d="M96.59,395.67c-14.38-4.21-17.17-15.88-13.19-25.29c-16.59,5.18-23.14,30.92-0.18,37.65
							c13.87,4.07,23.93-2.88,27.3-12C106.52,397.16,101.83,397.2,96.59,395.67z"/>
					</g>
					<g id="XMLID_656_">
						<path id="XMLID_658_" class="st3" d="M179.89,335.23c-24.33-6.74-40.04,29.57-12.11,37.76
							C196.28,381.34,208.78,343.23,179.89,335.23z"/>
						<path id="XMLID_657_" class="st4" d="M181.14,360.62c-14.38-4.21-17.17-15.88-13.19-25.29c-16.59,5.18-23.14,30.92-0.18,37.65
							c13.87,4.07,23.93-2.88,27.3-12C191.07,362.12,186.38,362.16,181.14,360.62z"/>
					</g>
				</g>
			</g>
			<g id="XMLID_3_">
				<path id="XMLID_310_" class="st2" d="M1920.83,621.28c-0.14-1.31-1.42-2.26-2.83-2.14c-1.42,0.13-2.45,1.3-2.31,2.61l6.7,61.7
					l-52.26,17.32l-8.01-56.43c-0.19-1.31-1.47-2.23-2.89-2.06c-1.41,0.17-2.41,1.37-2.22,2.68l7.8,54.93l-59.5-27.25
					c-1.28-0.58-2.82-0.1-3.46,1.08c-0.63,1.18-0.11,2.61,1.17,3.2l58.82,26.94l-59.11,23.41c-1.31,0.52-1.92,1.92-1.36,3.13
					c0.42,0.91,1.37,1.45,2.37,1.45c0.34,0,0.68-0.06,1.01-0.19l62.28-24.67l35.16,48.66l-53.97,22.7c-1.3,0.54-1.87,1.96-1.28,3.16
					c0.43,0.88,1.37,1.4,2.35,1.4c0.36,0,0.72-0.07,1.07-0.21l56.73-23.86c0.69-0.29,1.21-0.85,1.41-1.52
					c0.21-0.67,0.08-1.4-0.34-1.98l-36.21-50.1l54.06-17.91c1.12-0.37,1.82-1.39,1.7-2.48L1920.83,621.28z"/>
				<g id="XMLID_4_">
					<g id="XMLID_307_">
						<path id="XMLID_309_" class="st3" d="M1813.18,654.19c-26.29-7.28-43.26,31.96-13.09,40.8
							C1830.89,704.02,1844.4,662.84,1813.18,654.19z"/>
						<path id="XMLID_308_" class="st4" d="M1814.53,681.63c-15.54-4.55-18.55-17.16-14.25-27.33c-17.92,5.6-25.01,33.42-0.19,40.69
							c14.99,4.39,25.86-3.11,29.5-12.97C1825.27,683.24,1820.19,683.29,1814.53,681.63z"/>
					</g>
					<g id="XMLID_25_">
						<path id="XMLID_27_" class="st5" d="M1874.35,682.92c-26.29-7.28-43.26,31.96-13.09,40.8
							C1892.07,732.75,1905.57,691.57,1874.35,682.92z"/>
						<path id="XMLID_26_" class="st4" d="M1875.71,710.36c-15.54-4.55-18.55-17.16-14.25-27.33c-17.92,5.6-25.01,33.42-0.19,40.69
							c14.99,4.39,25.86-3.11,29.5-12.97C1886.44,711.97,1881.37,712.02,1875.71,710.36z"/>
					</g>
					<g id="XMLID_22_">
						<path id="XMLID_24_" class="st7" d="M1807.75,716.49c-16.57-4.59-27.26,20.14-8.25,25.71
							C1818.91,747.89,1827.42,721.94,1807.75,716.49z"/>
						<path id="XMLID_23_" class="st4" d="M1808.6,733.78c-9.79-2.87-11.69-10.81-8.98-17.22c-11.29,3.53-15.76,21.06-0.12,25.64
							c9.45,2.77,16.3-1.96,18.59-8.17C1815.36,734.79,1812.17,734.82,1808.6,733.78z"/>
					</g>
					<g id="XMLID_17_">
						<path id="XMLID_21_" class="st7" d="M1929.17,672.1c-16.57-4.59-27.26,20.14-8.25,25.71
							C1940.33,703.49,1948.84,677.54,1929.17,672.1z"/>
						<path id="XMLID_20_" class="st4" d="M1930.02,689.39c-9.79-2.87-11.69-10.81-8.98-17.22c-11.29,3.53-15.76,21.06-0.12,25.64
							c9.45,2.77,16.3-1.96,18.59-8.17C1936.79,690.4,1933.59,690.43,1930.02,689.39z"/>
					</g>
					<g id="XMLID_14_">
						<path id="XMLID_16_" class="st5" d="M1863.58,631.68c-16.57-4.59-27.26,20.14-8.25,25.71
							C1874.74,663.08,1883.25,637.13,1863.58,631.68z"/>
						<path id="XMLID_15_" class="st4" d="M1864.43,648.97c-9.79-2.87-11.69-10.81-8.98-17.22c-11.29,3.53-15.76,21.06-0.12,25.64
							c9.45,2.77,16.3-1.96,18.59-8.17C1871.19,649.99,1868,650.02,1864.43,648.97z"/>
					</g>
					<g id="XMLID_11_">
						<path id="XMLID_13_" class="st6" d="M1924.4,608.22c-16.57-4.59-27.26,20.14-8.25,25.71
							C1935.56,639.62,1944.07,613.67,1924.4,608.22z"/>
						<path id="XMLID_12_" class="st4" d="M1925.25,625.51c-9.79-2.87-11.69-10.81-8.98-17.22c-11.29,3.53-15.76,21.06-0.12,25.64
							c9.45,2.77,16.3-1.96,18.59-8.17C1932.01,626.53,1928.82,626.56,1925.25,625.51z"/>
					</g>
					<g id="XMLID_8_">
						<path id="XMLID_10_" class="st6" d="M1852.89,767.55c-16.57-4.59-27.26,20.14-8.25,25.71
							C1864.05,798.94,1872.56,772.99,1852.89,767.55z"/>
						<path id="XMLID_9_" class="st4" d="M1853.75,784.84c-9.79-2.87-11.69-10.81-8.98-17.22c-11.29,3.53-15.76,21.06-0.12,25.64
							c9.45,2.77,16.3-1.96,18.59-8.17C1860.51,785.85,1857.31,785.88,1853.75,784.84z"/>
					</g>
					<g id="XMLID_5_">
						<path id="XMLID_7_" class="st3" d="M1910.47,743.68c-16.57-4.59-27.26,20.14-8.25,25.71
							C1921.63,775.08,1930.14,749.13,1910.47,743.68z"/>
						<path id="XMLID_6_" class="st4" d="M1911.32,760.98c-9.79-2.87-11.69-10.81-8.98-17.22c-11.29,3.53-15.76,21.06-0.12,25.64
							c9.45,2.77,16.3-1.96,18.59-8.17C1918.08,761.99,1914.89,762.02,1911.32,760.98z"/>
					</g>
				</g>
			</g>
			<g id="XMLID_139_">
				<g id="XMLID_147_">
					<g id="XMLID_142_">
						<path id="XMLID_148_" class="st6" d="M998.19,697.02c-19.94-8.43-44.84,61.03-43.45,70.33c1.4,9.3,33.82,70.73,31.39,79.28
							c-2.43,8.55-53.31,88.04-38.6,94.26c14.71,6.22,56.13-82.78,54.26-95.45c-1.87-12.67-30.45-74.51-29.74-80.21
							C972.74,759.52,1013.88,703.65,998.19,697.02z"/>
						<path id="XMLID_170_" class="st4" d="M993.2,849.62c2.43-8.55-29.99-69.98-31.38-79.28c-1.29-8.62,19.98-68.84,38.97-70.97
							c-0.58-1.03-1.41-1.85-2.6-2.35c-19.94-8.43-44.84,61.03-43.45,70.33c1.4,9.3,33.82,70.73,31.39,79.28
							c-2.43,8.55-53.31,88.04-38.6,94.26c1.33,0.56,2.87,0.34,4.58-0.53C948.92,923.5,991,857.37,993.2,849.62z"/>
					</g>
					<g id="XMLID_145_">
						<path id="XMLID_143_" class="st6" d="M1054.08,720.64c19.94,8.43-20.55,71.29-29.07,76.4c-8.52,5.11-79.96,22.64-85.36,29.94
							c-5.4,7.3-37.1,94.89-51.81,88.67c-14.71-6.22,30.96-93.42,42.54-100.4c11.59-6.98,80.85-27.47,85.05-31.7
							C1019.64,779.33,1038.4,714.02,1054.08,720.64z"/>
						<path id="XMLID_168_" class="st4" d="M937.45,818.24c11.59-6.98,80.85-27.47,85.05-31.7c3.88-3.9,20.2-59.92,35.03-63.19
							c-0.85-1.17-1.98-2.09-3.45-2.71c-15.69-6.63-34.45,58.69-38.65,62.91c-4.2,4.22-73.47,24.72-85.05,31.7
							c-11.59,6.98-57.26,94.19-42.54,100.4c1.37,0.58,2.88,0.34,4.5-0.56C888.16,897.35,926.91,824.6,937.45,818.24z"/>
					</g>
				</g>
				<g id="XMLID_140_">
					<g id="XMLID_155_">
						<path id="XMLID_146_" class="st5" d="M942.68,816.59c2.05-4.15,52.6,15.8,49.97,21.12
							C990.02,843.02,940.63,820.73,942.68,816.59z"/>
						<path id="XMLID_161_" class="st5" d="M967.11,784.39c2.05-4.15,38.51,9.84,35.88,15.16
							C1000.36,804.87,965.06,788.54,967.11,784.39z"/>
						<path id="XMLID_162_" class="st5" d="M962.16,761.05c2.05-4.15,65.77,21.37,63.14,26.68
							C1022.68,793.05,960.12,765.19,962.16,761.05z"/>
						<path id="XMLID_163_" class="st5" d="M970.86,743.46c2.05-4.15,65.77,21.37,63.14,26.68
							C1031.37,775.46,968.81,747.61,970.86,743.46z"/>
						<path id="XMLID_164_" class="st5" d="M979.55,725.88c2.05-4.15,65.77,21.37,63.14,26.68S977.5,730.02,979.55,725.88z"/>
						<path id="XMLID_165_" class="st5" d="M988.24,708.29c2.05-4.15,65.77,21.37,63.14,26.68
							C1048.75,740.29,986.19,712.44,988.24,708.29z"/>
						<path id="XMLID_156_" class="st5" d="M927.4,831.39c2.05-4.15,65.77,21.37,63.14,26.68
							C987.91,863.39,925.35,835.53,927.4,831.39z"/>
						<path id="XMLID_157_" class="st5" d="M918.71,848.97c2.05-4.15,65.77,21.37,63.14,26.68
							C979.22,880.98,916.66,853.12,918.71,848.97z"/>
						<path id="XMLID_158_" class="st5" d="M910.02,866.56c2.05-4.15,65.77,21.37,63.14,26.68
							C970.53,898.56,907.97,870.7,910.02,866.56z"/>
						<path id="XMLID_159_" class="st5" d="M901.33,884.14c2.05-4.15,65.77,21.37,63.14,26.68
							C961.84,916.15,899.28,888.29,901.33,884.14z"/>
						<path id="XMLID_160_" class="st5" d="M892.63,901.73c2.05-4.15,65.77,21.37,63.14,26.68
							C953.15,933.73,890.58,905.88,892.63,901.73z"/>
					</g>
					<g id="XMLID_141_" class="st8">
						<path id="XMLID_166_" class="st9" d="M992.21,836.06c-11.69-2.51-36.34-13.79-42.5-19.19c-3.9-0.95-6.59-1.17-7.03-0.28
							c-2.05,4.15,47.34,26.43,49.97,21.12C992.87,837.25,992.68,836.69,992.21,836.06z"/>
						<path id="XMLID_154_" class="st9" d="M1002.98,798.34c-9.16-1.71-26.23-9.92-29.67-14.21c-3.33-0.68-5.73-0.72-6.21,0.26
							c-2.05,4.15,33.25,20.48,35.88,15.16C1003.16,799.19,1003.15,798.78,1002.98,798.34z"/>
						<path id="XMLID_153_" class="st9" d="M1024.4,785.74c-13.93-3.31-45.6-17.48-54.34-23.93c-4.47-1.2-7.48-1.6-7.9-0.76
							c-2.05,4.15,60.51,32,63.14,26.68C1025.56,787.23,1025.22,786.55,1024.4,785.74z"/>
						<path id="XMLID_152_" class="st9" d="M1033.09,768.15c-13.93-3.31-45.6-17.48-54.33-23.93c-4.47-1.2-7.48-1.6-7.9-0.76
							c-2.05,4.15,60.51,32,63.14,26.68C1034.25,769.65,1033.91,768.97,1033.09,768.15z"/>
						<path id="XMLID_173_" class="st9" d="M1041.78,750.57c-13.93-3.31-45.6-17.48-54.33-23.93c-4.47-1.2-7.48-1.6-7.9-0.76
							c-2.05,4.15,60.51,32,63.14,26.68C1042.94,752.06,1042.6,751.38,1041.78,750.57z"/>
						<path id="XMLID_180_" class="st9" d="M1050.47,732.98c-13.93-3.31-45.6-17.48-54.33-23.93c-4.47-1.2-7.48-1.6-7.9-0.76
							c-2.05,4.15,60.51,32,63.14,26.68C1051.63,734.48,1051.29,733.8,1050.47,732.98z"/>
						<path id="XMLID_167_" class="st9" d="M989.63,856.08c-13.93-3.31-45.6-17.48-54.34-23.93c-4.47-1.2-7.48-1.6-7.9-0.76
							c-2.05,4.15,60.51,32,63.14,26.68C990.79,857.57,990.45,856.89,989.63,856.08z"/>
						<path id="XMLID_151_" class="st9" d="M980.94,873.66c-13.93-3.31-45.6-17.48-54.34-23.93c-4.47-1.2-7.48-1.6-7.9-0.76
							c-2.05,4.15,60.51,32,63.14,26.68C982.1,875.16,981.76,874.48,980.94,873.66z"/>
						<path id="XMLID_150_" class="st9" d="M972.25,891.25c-13.93-3.31-45.6-17.48-54.33-23.93c-4.47-1.2-7.48-1.6-7.9-0.76
							c-2.05,4.15,60.51,32,63.14,26.68C973.41,892.74,973.07,892.07,972.25,891.25z"/>
						<path id="XMLID_149_" class="st9" d="M963.56,908.84c-13.93-3.31-45.6-17.48-54.34-23.93c-4.47-1.2-7.48-1.6-7.9-0.76
							c-2.05,4.15,60.51,32,63.14,26.68C964.72,910.33,964.38,909.65,963.56,908.84z"/>
						<path id="XMLID_169_" class="st9" d="M954.87,926.42c-13.93-3.31-45.6-17.48-54.34-23.93c-4.47-1.2-7.48-1.6-7.9-0.76
							c-2.05,4.15,60.51,32,63.14,26.68C956.02,927.91,955.68,927.24,954.87,926.42z"/>
					</g>
				</g>
			</g>
			<g id="XMLID_622_">
				<path id="XMLID_625_" class="st2" d="M487.13,348.93c10.31-16.9,54.04-91.04,34.06-100.68c-18.82-9.08-55.93,63.71-65.92,84.2
					c-33.51-1.04-66.53,37.28-33.71,67.78C462.11,437.91,519.21,387.76,487.13,348.93z"/>
				<path id="XMLID_624_" class="st5" d="M476.2,352.4c12.75-21.89,32.03-56.32,21.59-61.36c-9.98-4.82-27.77,28.69-39.88,51.81
					c-26.09-3.57-54.12,26.61-28.49,50.42C460.62,422.27,504.93,381.72,476.2,352.4z"/>
				<path id="XMLID_623_" class="st4" d="M487.06,397.87c-0.02-0.01-0.03-0.03-0.04-0.04c-3.68-2.84-9-2.5-13.75-3.12
					c-12.89-1.67-23.76-12.3-24.83-24.3c-0.78-8.7,3.04-17.13,6.98-25.07c5.55-11.16,11.5-22.14,17.84-32.93
					c11.13-18.91,23.46-37.22,36.92-54.78c1.88-2.46,5.75-6.17,8.79-10.06c-19.38-2.96-54.1,65.16-63.71,84.87
					c-33.51-1.04-66.53,37.28-33.71,67.78C444.46,421.51,472.65,414.77,487.06,397.87z"/>
			</g>
			<g id="XMLID_217_">
				<path id="XMLID_188_" class="st6" d="M1632.39,1120.11c-7.19-0.02-13.85-1.88-19.58-5.31c0.25-1.28,0.45-2.54,0.59-3.76
					c0.51-4.31,0.48-8.84-0.04-13.52c4.72,2.12,9.85,3.5,15.26,4.12c3.83,0.44,3.8-5.13,0-5.56c-5.97-0.68-11.49-2.57-16.38-5.46
					c-1.92-9.12-5.63-18.68-11.02-28.23c7.47,1.29,14.37,4.36,20.3,9.17c2.9,2.35,7.17-1.57,4.25-3.93
					c-8.06-6.53-17.72-10.43-28.2-11.31c-0.08-0.12-0.14-0.24-0.22-0.36c-4.09-6.36-8.77-12.43-13.76-17.95
					c5.8-1.35,11.35-3.65,16.43-6.85c3.18-2,0.18-6.82-3.04-4.8c-5.59,3.52-11.62,5.79-17.96,6.84
					c-6.49-6.5-13.34-11.97-20.03-15.89c5.16-1.27,10.56-1.77,16.05-1.49c3.87,0.2,3.86-5.36,0-5.56
					c-7.92-0.41-15.58,0.72-22.71,3.23c-5.83-3.29-12.15-6.65-18.95-9.5c2.02-5.23,2.52-10.99,1.25-16.76
					c-0.77-3.51-6.57-2.02-5.8,1.48c0.99,4.48,0.6,9-0.94,13.14c-8.58-3.08-17.88-5.16-27.89-5.16c-1.65,0-3.3,0.06-4.95,0.18
					c0.73-3.75,2.1-7.41,4.12-10.95c1.81-3.16-3.38-5.98-5.19-2.81c-2.65,4.62-4.35,9.49-5.1,14.46
					c-9.83,1.57-19.49,5.23-28.83,10.94c-4.93-4.66-10.71-8.5-17.21-11.35c-3.48-1.52-6.54,3.27-3.04,4.8
					c5.74,2.51,10.84,5.81,15.23,9.81c-6.57,4.58-11.32,9.14-14.7,13.54c-3.36-3.23-6.07-7.03-7.93-11.32
					c-1.42-3.28-7.24-1.85-5.8,1.48c2.43,5.6,5.97,10.57,10.48,14.68c-2.7,4.74-3.91,9.2-4.24,13.16
					c-3.68-0.39-7.42-0.46-11.23-0.21c-3.84,0.26-3.87,5.82,0,5.56c3.82-0.25,7.59-0.16,11.31,0.25c0.01,0.04,0.01,0.09,0.01,0.13
					c0.72,6,3.35,11.73,7.66,16.98c-5.24,1.83-10.47,3.66-15.71,5.48c-3.59,1.25-2.03,6.63,1.6,5.36c6.1-2.13,12.2-4.26,18.3-6.39
					c4.67,4.39,10.6,8.34,17.65,11.71c-2.75,2.67-5.84,5.05-9.29,7.09c-3.25,1.92-0.24,6.74,3.04,4.8c4.48-2.64,8.48-5.8,11.95-9.39
					c0.74,0.3,1.49,0.59,2.25,0.88c13.58,5.09,15.49,9,15.74,9.73c0.2,0.6,0.21,1.85-0.99,4.32c-5.36-1.77-10.99-2.68-16.82-2.67
					c-3.87,0-3.88,5.57,0,5.56c4.82-0.01,9.42,0.68,13.83,2.03c-0.1,0.15-0.2,0.29-0.3,0.44c-1.45,2.04-2.52,4.37-3.22,6.89
					c-3.23-1.79-6.3-3.86-9.16-6.25c-2.87-2.39-7.13,1.53-4.25,3.93c3.85,3.22,8.02,5.96,12.47,8.22
					c-0.24,4.59,0.55,9.51,2.37,14.31c-5.99,0.72-11.84,2.23-17.55,4.53c-3.54,1.43-0.48,6.22,3.04,4.8
					c5.49-2.22,11.18-3.53,16.99-4.02c0.13,0.23,0.25,0.47,0.38,0.7c4.17,7.15,10.26,12.9,17.8,17.04c-4,4.61-8.91,8.28-15.73,9.3
					c-3.81,0.57-2.19,5.93,1.6,5.36c8.48-1.27,14.58-6.13,19.51-12.06c5.1,2.12,10.73,3.57,16.78,4.34
					c-0.72,3.58-0.72,7.32,0.05,11.1c0.72,3.51,6.51,2.03,5.8-1.48c-0.63-3.07-0.57-6.14,0.09-9.07c1.39,0.07,2.8,0.11,4.23,0.11
					c0,0,0,0,0,0c7.01,0,14.52-0.85,22.42-2.5c-0.3,3.54-1.34,7.05-3.14,10.38c-1.72,3.19,3.46,6.01,5.19,2.81
					c2.55-4.71,3.86-9.64,3.98-14.58c3.22-0.82,6.5-1.77,9.84-2.85c2.33-0.76,4.53-1.57,6.62-2.42c2.34,3.32,4.99,6.44,7.94,9.36
					c2.65,2.62,6.89-1.32,4.25-3.93c-2.5-2.48-4.75-5.11-6.75-7.89c7.08-3.53,12.57-7.64,16.8-12.03
					c3.21,6.26,3.85,13.42,1.67,20.38c-1.08,3.45,4.72,4.92,5.8,1.48c2.87-9.16,1.53-18.64-3.43-26.62
					c3.39-4.55,5.64-9.26,7.09-13.81c6.31,3.35,13.51,5.14,21.04,5.17C1636.26,1125.69,1636.26,1120.13,1632.39,1120.11z"/>
				<path id="XMLID_178_" class="st7" d="M1465.07,1018.77c-35.36,22.69-19.6,45.45,9.85,56.5c29.45,11.05,25.94,23.26,16.99,35.83
					c-8.95,12.58,7.12,56.5,75.47,34.39c67.99-22,20.06-98.77-15.34-119.11C1529.19,1013.26,1500.15,996.27,1465.07,1018.77z"/>
				<path id="XMLID_181_" class="st4" d="M1632.39,1125.67c3.87,0.01,3.88-5.55,0-5.56c-7.19-0.02-13.85-1.88-19.58-5.31
					c0.25-1.28,0.45-2.54,0.59-3.76c0.51-4.31,0.48-8.84-0.04-13.52c4.72,2.12,9.85,3.5,15.26,4.12c3.83,0.44,3.8-5.13,0-5.56
					c-5.97-0.68-11.49-2.57-16.38-5.46c-0.33-1.56-0.73-3.13-1.16-4.71c-0.4,0.29-0.8,0.56-1.18,0.89
					c-5.42,4.65-7.21,11.77-10.61,17.84c-9.83,17.58-35.94,25.42-55.07,16.54c-11.31-5.25-19.32-14.91-26.93-24.26
					c-13.52-16.6-16.83-42.96-32.59-57.78c-15.71-14.77-25.52-13.2-35.93-22.55c-3.47,2.95-6.25,5.87-8.44,8.72
					c-3.36-3.23-6.07-7.03-7.93-11.32c-1.42-3.28-7.24-1.85-5.8,1.48c2.43,5.6,5.97,10.57,10.48,14.68
					c-2.7,4.74-3.91,9.2-4.24,13.16c-3.68-0.39-7.42-0.46-11.23-0.21c-3.84,0.26-3.87,5.82,0,5.56c3.82-0.25,7.59-0.16,11.31,0.25
					c0.01,0.04,0.01,0.09,0.01,0.13c0.72,6,3.35,11.73,7.66,16.98c-5.24,1.83-10.47,3.66-15.71,5.48c-3.59,1.25-2.03,6.63,1.6,5.36
					c6.1-2.13,12.2-4.26,18.3-6.39c4.67,4.39,10.6,8.34,17.65,11.71c-2.75,2.67-5.84,5.05-9.29,7.09c-3.25,1.92-0.24,6.74,3.04,4.8
					c4.48-2.64,8.48-5.8,11.95-9.39c0.74,0.3,1.49,0.59,2.25,0.88c13.58,5.09,15.49,9,15.74,9.73c0.2,0.6,0.21,1.85-0.99,4.32
					c-5.36-1.77-10.99-2.68-16.82-2.67c-3.87,0-3.88,5.57,0,5.56c4.82-0.01,9.42,0.68,13.83,2.03c-0.1,0.15-0.2,0.29-0.3,0.44
					c-1.45,2.04-2.52,4.37-3.22,6.89c-3.23-1.79-6.3-3.86-9.16-6.25c-2.87-2.39-7.13,1.53-4.25,3.93c3.85,3.22,8.02,5.96,12.47,8.22
					c-0.24,4.59,0.55,9.51,2.37,14.31c-5.99,0.72-11.84,2.23-17.55,4.53c-3.54,1.43-0.48,6.22,3.04,4.8
					c5.49-2.22,11.18-3.53,16.99-4.02c0.13,0.23,0.25,0.47,0.38,0.7c4.17,7.15,10.26,12.9,17.8,17.04c-4,4.61-8.91,8.28-15.73,9.3
					c-3.81,0.57-2.19,5.93,1.6,5.36c8.48-1.27,14.58-6.13,19.51-12.06c5.1,2.12,10.73,3.57,16.78,4.34
					c-0.72,3.58-0.72,7.32,0.05,11.1c0.72,3.51,6.51,2.03,5.8-1.48c-0.63-3.07-0.57-6.14,0.09-9.07c1.39,0.07,2.8,0.11,4.23,0.11
					c0,0,0,0,0,0c7.01,0,14.52-0.85,22.42-2.5c-0.3,3.54-1.34,7.05-3.14,10.38c-1.72,3.19,3.46,6.01,5.19,2.81
					c2.55-4.71,3.86-9.64,3.98-14.58c3.22-0.82,6.5-1.77,9.84-2.85c2.33-0.76,4.53-1.57,6.62-2.42c2.34,3.32,4.99,6.44,7.94,9.36
					c2.65,2.62,6.89-1.32,4.25-3.93c-2.5-2.48-4.75-5.11-6.75-7.89c7.08-3.53,12.57-7.64,16.8-12.03
					c3.21,6.26,3.85,13.42,1.67,20.38c-1.08,3.44,4.72,4.92,5.8,1.48c2.87-9.16,1.53-18.64-3.43-26.62
					c3.39-4.55,5.64-9.26,7.09-13.81C1617.65,1123.85,1624.85,1125.65,1632.39,1125.67z"/>
			</g>
			<g id="XMLID_122_">
				<path id="XMLID_124_" class="st5" d="M855.75,774.09c-1.75,0-2.88,4.4-3.2,9.37c-4.55-0.95-12.12-1.03-17.9-0.41
					c-0.9-8.65-4.77-17.09-12.11-23.83c4.75-3.29,10.68-8.79,13.39-12.72c3.92,3.4,8,5.83,9.47,4.47
					c3.37-3.12-14.92-19.04-17.75-16.42c-1.24,1.14,1.33,4.99,4.9,8.72c-4.34,2.54-10.48,8.23-14.03,12.69
					c-4.73-3.4-10.55-6.21-17.56-8.15c-2.82-0.78-5.58-1.27-8.27-1.51c0.93-5.45,0.96-13.59-0.17-18.29
					c5.37-0.16,10.11-1.11,10.11-3.03c0-4.41-25.11-3.71-25.11,0c0,1.62,4.76,2.66,10.13,2.96c-1.13,4.64-1.12,12.71-0.21,18.18
					c-9.97,0.3-18.79,4.08-25.76,9.89c-3.53-4.44-9.65-10.13-14-12.69c3.67-3.62,6.3-7.4,4.84-8.75
					c-3.37-3.12-20.59,13.79-17.75,16.42c1.24,1.14,5.4-1.23,9.43-4.53c2.76,4.03,8.95,9.74,13.79,13.02
					c-6.33,6.6-10.62,14.98-12.1,23.63c-5.8-0.65-13.55-0.59-18.2,0.36c-0.17-4.96-1.2-9.35-3.27-9.35c-4.77,0-4.01,23.22,0,23.22
					c1.75,0,2.88-4.4,3.2-9.37c4.5,0.94,11.96,1.02,17.72,0.43c-0.33,9.2,2.65,18.35,9.83,25.64c-4.18,3.27-8.67,7.62-10.92,10.89
					c-3.92-3.4-8-5.83-9.47-4.47c-3.37,3.12,14.92,19.04,17.75,16.42c1.24-1.14-1.33-4.99-4.9-8.72c3.59-2.1,8.4-6.35,11.97-10.28
					c4.35,3.24,9.76,5.95,16.36,7.88c3.86,1.13,7.58,1.84,11.14,2.19c-0.53,5.17-0.4,11.53,0.55,15.48
					c-5.37,0.16-10.11,1.11-10.11,3.03c0,4.41,25.11,3.71,25.11,0c0-1.62-4.76-2.66-10.13-2.96c0.94-3.88,1.09-10.15,0.58-15.3
					c11.18-0.2,20.54-4.15,27.55-10.24c3.54,3.89,8.28,8.07,11.84,10.16c-3.67,3.62-6.3,7.4-4.84,8.75
					c3.37,3.12,20.59-13.79,17.75-16.42c-1.24-1.14-5.4,1.23-9.43,4.53c-2.29-3.34-6.94-7.84-11.22-11.15
					c6.2-7.16,9.77-16.24,10.09-25.44c5.73,0.59,13.14,0.5,17.65-0.42c0.17,4.96,1.2,9.35,3.27,9.35
					C860.51,797.31,859.76,774.09,855.75,774.09z"/>
				<path id="XMLID_123_" class="st4" d="M835.96,824.96c-2.29-3.34-6.94-7.84-11.22-11.15c4.55-5.25,7.67-11.54,9.14-18.15
					c-6.34,4.34-27.59,7.38-37.33,5.72c-9.74-1.66-23.36-9.06-27.19-17.51c-2.77-6.11-2.34-13.02-1.38-19.58
					c0.66-4.52,1.54-9.08,1.73-13.62c-2.89,1.48-5.58,3.27-8.04,5.32c-3.53-4.44-9.65-10.13-14-12.69c3.67-3.62,6.3-7.4,4.84-8.75
					c-3.37-3.12-20.59,13.79-17.75,16.42c1.24,1.14,5.4-1.23,9.43-4.53c2.76,4.03,8.95,9.74,13.79,13.02
					c-6.33,6.6-10.62,14.98-12.1,23.63c-5.8-0.65-13.55-0.59-18.2,0.36c-0.17-4.96-1.2-9.35-3.27-9.35c-4.77,0-4.01,23.22,0,23.22
					c1.75,0,2.88-4.4,3.2-9.37c4.5,0.94,11.96,1.02,17.72,0.43c-0.33,9.2,2.65,18.35,9.83,25.64c-4.18,3.27-8.67,7.62-10.92,10.89
					c-3.92-3.4-8-5.83-9.47-4.47c-3.37,3.12,14.92,19.04,17.75,16.42c1.24-1.14-1.33-4.99-4.9-8.72c3.59-2.1,8.4-6.35,11.97-10.28
					c4.35,3.24,9.76,5.95,16.36,7.88c3.86,1.13,7.58,1.84,11.14,2.19c-0.53,5.17-0.4,11.53,0.55,15.48
					c-5.37,0.16-10.11,1.11-10.11,3.03c0,4.41,25.11,3.71,25.11,0c0-1.62-4.76-2.66-10.13-2.96c0.94-3.88,1.09-10.15,0.58-15.3
					c11.18-0.2,20.54-4.15,27.55-10.24c3.54,3.89,8.28,8.07,11.84,10.16c-3.67,3.62-6.3,7.4-4.84,8.75
					c3.37,3.12,20.59-13.79,17.75-16.42C844.15,819.29,839.99,821.66,835.96,824.96z"/>
			</g>
			<g id="XMLID_115_">
				<path id="XMLID_121_" class="st3" d="M279.65,455.38c-17.51,14.3-1.07,82.43,37,80.82c2.02,4.14,6.88,7.26,11.68,9.03
					c0.75,0.28,1.52,0.55,2.3,0.82c4.72,1.66,9.6,3.38,11.67,7c1.09,1.91,1.33,4.25,1.59,6.73c0.27,2.64,0.55,5.37,1.88,7.95
					c2.61,5.08,8.24,7.63,13.2,9.88c0.62,0.28,1.23,0.56,1.83,0.84c3.57,1.66,9.53,5.16,9.29,9.95c-0.06,1.23,0.96,2.27,2.29,2.33
					c0.65,0.03,1.25-0.19,1.7-0.56c0.47-0.38,0.78-0.94,0.81-1.56c0.28-5.41-3.96-10.43-11.93-14.13c-0.62-0.29-1.24-0.57-1.88-0.86
					c-4.46-2.02-9.08-4.11-10.97-7.8c-0.96-1.87-1.19-4.1-1.43-6.46c-0.29-2.8-0.59-5.69-2.13-8.39c-2.92-5.1-8.91-7.21-14.2-9.08
					c-0.75-0.27-1.5-0.53-2.23-0.8c-3.14-1.16-6.53-3.1-8.33-5.52c7.06-1.41,14.77-5.15,23.07-11.93c0.45-0.36,0.85-0.73,1.28-1.09
					c4.73,3.52,8.07,8.69,8.63,14.29c0.19,1.85,0.12,3.77,0.05,5.8c-0.15,4.3-0.3,8.76,2.05,12.82c2.63,4.55,7.64,7.13,12.19,9.06
					l1.7,0.71c3.75,1.56,7.3,3.03,9.88,5.5c2.5,2.4,3.91,6.6,1.84,9.22c-0.78,0.99-0.55,2.38,0.52,3.11
					c0.93,0.63,2.18,0.55,3.01-0.12c0.13-0.1,0.24-0.22,0.35-0.35c3.73-4.71,1.63-11.21-2.25-14.93c-3.22-3.09-7.36-4.81-11.37-6.47
					l-1.67-0.7c-3.82-1.62-8-3.73-9.95-7.11c-1.74-3.02-1.62-6.69-1.48-10.58c0.07-2.08,0.15-4.22-0.06-6.35
					c-0.66-6.6-4.5-12.71-9.98-16.97c3.23-3.11,5.77-6.18,7.71-9.19c3.19,1.98,1.53,0.35,2.89,3.68c0.67,1.66,1.13,3.48,1.61,5.4
					c1.17,4.7,2.39,9.56,7,12.51c3.2,2.05,6.89,2.35,10.47,2.65c0.94,0.08,1.87,0.15,2.78,0.27c13.46,1.65,24.67,13.2,24.99,25.75
					c0.03,1.23,1.13,2.2,2.46,2.17c0.59-0.01,1.12-0.22,1.53-0.56c0.51-0.42,0.83-1.04,0.81-1.72
					c-0.37-14.65-13.46-28.13-29.17-30.05c-0.98-0.12-1.98-0.2-2.99-0.29c-3.08-0.25-6-0.49-8.16-1.88
					c-3.08-1.97-4.04-5.8-5.05-9.85c-0.5-1.98-1.01-4.04-1.8-5.97c-1.77-4.35-0.95-3.54-5.18-6.03
					C377.91,467.86,298.32,440.13,279.65,455.38z"/>
				<path id="XMLID_120_" class="st4" d="M359.25,483.15c-0.43,0.16-0.86,0.29-1.27,0.48c-8.91,3.98-13.58,13.16-21.29,18.9
					c-9.29,6.91-22.66,8.17-33.89,4.47c-11.23-3.69-20.35-11.84-26.28-21.41c-1.45-2.34-2.72-4.77-3.84-7.25
					c0.79,24.95,16.91,59.01,43.96,57.86c2.02,4.14,6.88,7.26,11.68,9.03c0.75,0.28,1.52,0.55,2.3,0.82c4.72,1.66,9.6,3.38,11.67,7
					c1.09,1.91,1.33,4.25,1.59,6.73c0.27,2.64,0.55,5.37,1.88,7.95c2.61,5.08,8.24,7.63,13.2,9.88c0.62,0.28,1.23,0.56,1.83,0.84
					c3.57,1.66,9.53,5.16,9.29,9.95c-0.06,1.23,0.96,2.27,2.29,2.33c0.65,0.03,1.25-0.19,1.7-0.56c0.47-0.38,0.78-0.94,0.81-1.56
					c0.28-5.41-3.96-10.43-11.93-14.13c-0.62-0.29-1.24-0.57-1.88-0.86c-4.46-2.02-9.08-4.11-10.97-7.8
					c-0.96-1.87-1.19-4.1-1.43-6.46c-0.29-2.8-0.59-5.69-2.13-8.39c-2.92-5.1-8.91-7.21-14.2-9.08c-0.75-0.27-1.5-0.53-2.23-0.8
					c-3.14-1.16-6.53-3.1-8.33-5.52c7.06-1.41,14.77-5.15,23.07-11.93c0.45-0.36,0.85-0.73,1.28-1.09
					c4.73,3.52,8.07,8.69,8.63,14.29c0.19,1.85,0.12,3.77,0.05,5.8c-0.15,4.3-0.3,8.76,2.05,12.82c2.63,4.55,7.64,7.13,12.19,9.06
					l1.7,0.71c3.75,1.56,7.3,3.03,9.88,5.5c2.5,2.4,3.91,6.6,1.84,9.22c-0.78,0.99-0.55,2.38,0.52,3.11
					c0.93,0.63,2.18,0.55,3.01-0.12c0.13-0.1,0.24-0.22,0.35-0.35c3.73-4.71,1.63-11.21-2.25-14.93c-3.22-3.09-7.36-4.81-11.37-6.47
					l-1.67-0.7c-3.82-1.62-8-3.73-9.95-7.11c-1.74-3.02-1.62-6.69-1.48-10.58c0.07-2.08,0.15-4.22-0.06-6.35
					c-0.66-6.6-4.5-12.71-9.98-16.97c3.23-3.11,5.77-6.18,7.71-9.19c3.19,1.98,1.53,0.35,2.89,3.68c0.67,1.66,1.13,3.48,1.61,5.4
					c1.17,4.7,2.39,9.56,7,12.51c3.2,2.05,6.89,2.35,10.47,2.65c0.94,0.08,1.87,0.15,2.78,0.27c13.46,1.65,24.67,13.2,24.99,25.75
					c0.03,1.23,1.13,2.2,2.46,2.17c0.59-0.01,1.12-0.22,1.53-0.56c0.51-0.42,0.83-1.04,0.81-1.72
					c-0.37-14.65-13.46-28.13-29.17-30.05c-0.98-0.12-1.98-0.2-2.99-0.29c-3.08-0.25-6-0.49-8.16-1.88
					c-3.08-1.97-4.04-5.8-5.05-9.85c-0.5-1.98-1.01-4.04-1.8-5.97c-1.77-4.35-0.95-3.54-5.18-6.03
					C363.48,498.01,362.86,490.16,359.25,483.15z"/>
				<g id="XMLID_116_">
					<path id="XMLID_119_" class="st6" d="M315.77,462.23c5.65,5.92,6.4,13.84,1.67,17.7c-4.73,3.86-13.14,2.19-18.79-3.73
						c-5.65-5.92-6.4-13.84-1.67-17.7C301.71,454.64,310.12,456.31,315.77,462.23z"/>
					<path id="XMLID_118_" class="st6" d="M308,487.64c3.43,3.59,3.88,8.4,1.02,10.74c-2.87,2.34-7.97,1.33-11.4-2.26
						c-3.43-3.59-3.88-8.4-1.02-10.74C299.46,483.04,304.57,484.05,308,487.64z"/>
					<path id="XMLID_117_" class="st6" d="M336.22,470.59c2.77,2.9,3.13,6.78,0.82,8.66c-2.31,1.89-6.43,1.07-9.2-1.82
						s-3.13-6.77-0.82-8.66C329.34,466.88,333.46,467.7,336.22,470.59z"/>
				</g>
			</g>
			<g id="XMLID_105_">
				<path id="XMLID_114_" class="st6" d="M282.35-144.22C288.91-142,342.81-4.1,342.23,4.37c-0.58,8.48-112.83,40.24-112.83,40.24
					l-61.59-149.58C167.82-104.96,274.97-146.72,282.35-144.22z"/>
				<g id="XMLID_108_">
					<g id="XMLID_109_">
						<path id="XMLID_111_" class="st2" d="M303.38-14L246.71,5.95c-1.29,0.46-2.74-0.15-3.23-1.34l0,0
							c-0.49-1.2,0.16-2.53,1.45-2.99l56.67-19.95c1.29-0.46,2.74,0.15,3.23,1.34l0,0C305.33-15.8,304.68-14.46,303.38-14z"/>
						<path id="XMLID_110_" class="st2" d="M276.9,6.98l-25.99,9.15c-1.29,0.46-2.74-0.15-3.23-1.34l0,0
							c-0.49-1.2,0.16-2.54,1.45-2.99l25.99-9.15c1.29-0.46,2.74,0.15,3.23,1.34l0,0C278.84,5.19,278.19,6.53,276.9,6.98z"/>
					</g>
				</g>
				<path id="XMLID_107_" class="st3" d="M229.4,44.62L229.4,44.62l-61.59-149.58l0,0c-5.91,2.08-8.88,8.2-6.63,13.66l53.44,129.79
					C216.88,43.95,223.49,46.7,229.4,44.62z"/>
				<path id="XMLID_106_" class="st4" d="M329.05-24.48c-33.85,11.47-73.24,3.5-102.08-16.2c-9.17-6.26-17.41-13.63-24.64-21.75
					c-12.12-13.61-20.73-28.93-27.79-45.14c-4.23,1.63-6.72,2.6-6.72,2.6c-5.91,2.08-8.88,8.2-6.63,13.66l53.44,129.79
					c2.25,5.47,8.87,8.21,14.78,6.13c0,0,112.25-31.76,112.83-40.24c0.16-2.3-3.7-14.12-9.52-30.17
					C331.49-25.34,330.28-24.89,329.05-24.48z"/>
			</g>
			<g id="XMLID_200_">
				<g id="XMLID_199_">
					<path id="XMLID_289_" class="st5" d="M347.76,627.13c7.79,3.63,53.1,181.98,51.05,192.42C396.77,830,252.5,854.4,252.5,854.4
						l-53.02-193.87C199.48,660.52,338.99,623.04,347.76,627.13z"/>
					<g id="XMLID_201_">
						<path id="XMLID_283_" class="st2" d="M232.03,779.57l150.92-35.29c-3.58-14.34-7.45-29.31-11.3-43.58l-151.51,35.43
							L232.03,779.57z"/>
						<path id="XMLID_206_" class="st3" d="M335.8,732.2c-0.84-3.06-4.2-4.92-7.51-4.14l-0.83,0.19l0.68-0.47
							c2.73-1.9,3.28-5.48,1.22-8.01c-2.05-2.52-5.93-3.03-8.66-1.13l-0.05,0.03l0.03-0.05c1.75-2.71,0.79-6.22-2.14-7.84v0
							c-2.93-1.62-6.73-0.73-8.48,1.98l-0.44,0.68l0.12-0.78c0.48-3.13-1.88-6.02-5.26-6.46l0,0c-3.38-0.44-6.51,1.74-6.99,4.86
							l-0.01,0.05l-0.01-0.05c-0.84-3.06-4.2-4.92-7.51-4.14c-3.31,0.77-5.32,3.88-4.48,6.95l0.21,0.76l-0.51-0.63
							c-2.05-2.52-5.93-3.03-8.66-1.13c-2.73,1.9-3.28,5.48-1.22,8.01l0.03,0.04l-0.05-0.03c-2.93-1.62-6.73-0.73-8.48,1.98v0
							c-1.75,2.71-0.79,6.22,2.14,7.84l0.73,0.4l-0.84-0.11c-3.38-0.44-6.51,1.74-6.99,4.86h0c-0.48,3.13,1.88,6.02,5.26,6.46
							l0.06,0.01l-0.06,0.01c-3.31,0.77-5.32,3.88-4.48,6.94c0.84,3.06,4.2,4.92,7.51,4.14l0.83-0.19l-0.68,0.47
							c-2.73,1.9-3.28,5.48-1.22,8.01c2.05,2.52,5.93,3.03,8.66,1.13l0.05-0.03l-0.03,0.05c-1.75,2.71-0.79,6.22,2.14,7.84
							c2.93,1.62,6.73,0.73,8.48-1.98l0.44-0.68l-0.12,0.78c-0.48,3.13,1.88,6.02,5.26,6.46c3.38,0.44,6.51-1.74,6.99-4.86
							l0.01-0.05l0.01,0.05c0.84,3.06,4.2,4.92,7.51,4.14c3.31-0.77,5.32-3.88,4.48-6.95l-0.21-0.76l0.51,0.63
							c2.05,2.52,5.93,3.03,8.66,1.13c2.73-1.9,3.28-5.48,1.22-8.01l-0.03-0.04l0.05,0.03c2.93,1.62,6.73,0.73,8.48-1.98
							c1.75-2.71,0.79-6.22-2.14-7.84l-0.73-0.4l0.84,0.11c3.38,0.44,6.51-1.74,6.99-4.86c0.48-3.13-1.88-6.02-5.26-6.46l-0.06-0.01
							l0.06-0.01C334.63,738.37,336.64,735.26,335.8,732.2z"/>
					</g>
					<path id="XMLID_282_" class="st6" d="M252.5,854.4L252.5,854.4l-53.02-193.87l0,0c-7.66,1.79-12.3,8.99-10.36,16.07l46,168.22
						C237.05,851.9,244.83,856.19,252.5,854.4z"/>
					<path id="XMLID_281_" class="st4" d="M386.98,781.98c-43.81,9.7-91.43-5.46-124.15-33.76c-10.4-9-19.47-19.25-27.17-30.29
						c-12.91-18.51-21.2-38.68-27.43-59.74c-5.51,1.46-8.75,2.33-8.75,2.33c-7.66,1.79-12.3,8.99-10.36,16.07l46,168.22
						c1.94,7.08,9.72,11.37,17.38,9.58c0,0,144.27-24.4,146.32-34.84c0.56-2.83-2.38-18.02-7.09-38.71
						C390.14,781.24,388.57,781.63,386.98,781.98z"/>
				</g>
			</g>
			<g id="XMLID_70_">
				<g id="XMLID_81_">
					<path id="XMLID_104_" class="st7" d="M1888.85,1011.28c4.31,6.42-53.55,169.37-60.69,176.8
						c-7.14,7.42-135.31-38.14-135.31-38.14l59.89-178.85C1752.74,971.09,1884,1004.06,1888.85,1011.28z"/>
					<g id="XMLID_85_">
						<path id="XMLID_103_" class="st2" d="M1851.59,1044.1l-89.48-25.62c-2.17-0.62-3.38-2.75-2.71-4.75l5.92-17.69
							c0.67-2,2.97-3.13,5.14-2.51l89.48,25.62c2.17,0.62,3.38,2.75,2.71,4.75l-5.92,17.69
							C1856.06,1043.6,1853.76,1044.72,1851.59,1044.1z"/>
						<path id="XMLID_101_" class="st5" d="M1829.9,1061.17l-60.32-17.27c-2.54-0.73-3.95-3.21-3.17-5.56l0,0
							c0.79-2.34,3.48-3.66,6.01-2.93l60.32,17.27c2.54,0.73,3.95,3.21,3.17,5.56l0,0
							C1835.13,1060.59,1832.44,1061.9,1829.9,1061.17z"/>
						<path id="XMLID_100_" class="st5" d="M1824.39,1077.63l-60.32-17.27c-2.54-0.73-3.95-3.21-3.17-5.56l0,0
							c0.78-2.34,3.48-3.66,6.01-2.93l60.32,17.27c2.54,0.73,3.95,3.21,3.17,5.56l0,0
							C1829.61,1077.05,1826.92,1078.36,1824.39,1077.63z"/>
						<path id="XMLID_86_" class="st5" d="M1806.22,1090.47l-35.01-10.02c-2.54-0.73-3.95-3.21-3.17-5.56l0,0
							c0.78-2.34,3.48-3.66,6.01-2.93l35.01,10.02c2.54,0.73,3.95,3.21,3.17,5.56l0,0
							C1811.45,1089.89,1808.75,1091.2,1806.22,1090.47z"/>
					</g>
					<path id="XMLID_84_" class="st5" d="M1692.85,1149.93L1692.85,1149.93l59.89-178.85l0,0c-7.07-2.02-14.57,1.63-16.76,8.17
						l-51.96,155.18C1681.83,1140.97,1685.78,1147.91,1692.85,1149.93z"/>
					<path id="XMLID_82_" class="st4" d="M1838.52,1152.71c-40.12-12-70.19-45.6-81.41-82.97c-3.57-11.88-5.41-24.16-5.74-36.46
						c-0.55-20.61,3.46-40.47,9.59-60.11c-5.17-1.32-8.22-2.09-8.22-2.09c-7.07-2.02-14.57,1.63-16.76,8.17l-51.96,155.18
						c-2.19,6.53,1.77,13.47,8.83,15.5c0,0,128.16,45.57,135.31,38.14c1.94-2.01,7.61-15.47,14.75-34.14
						C1841.44,1153.55,1839.97,1153.15,1838.52,1152.71z"/>
				</g>
			</g>
			<g id="XMLID_194_">
				<path id="XMLID_279_" class="st6" d="M624.22,1002.65l-199.11,80.71l175.14,119.09L624.22,1002.65z M476.84,1088.67
					l116.54-47.24l-14.03,116.94L476.84,1088.67z"/>
				<path id="XMLID_215_" class="st4" d="M624.22,1002.65l-199.11,80.71l175.14,119.09l6.28-52.32c-8.16-3.04-16.91-4.54-25.36-6.84
					l-1.81,15.08l-102.51-69.71l63.16-25.6c7.39-15.01,21.29-26.98,36.85-35.29c8.34-4.46,17.2-8,26.24-11.04
					c6.65-2.24,15.05-3.37,20.4-8.01L624.22,1002.65z"/>
			</g>
			<g id="XMLID_218_">
				<polygon id="XMLID_236_" class="st6" points="664.14,367.69 490.97,527.82 475.04,513.09 648.21,352.96 				"/>
				<g id="XMLID_237_">
					<line id="XMLID_238_" class="st10" x1="497.04" y1="519.75" x2="489.77" y2="513.03"/>
					<line id="XMLID_239_" class="st10" x1="503.93" y1="513.39" x2="500.29" y2="510.03"/>
					<line id="XMLID_240_" class="st10" x1="510.81" y1="507.02" x2="503.54" y2="500.3"/>
					<line id="XMLID_241_" class="st10" x1="517.7" y1="500.65" x2="514.06" y2="497.29"/>
					<line id="XMLID_242_" class="st10" x1="524.58" y1="494.28" x2="517.32" y2="487.56"/>
					<line id="XMLID_243_" class="st10" x1="531.47" y1="487.92" x2="527.84" y2="484.56"/>
					<line id="XMLID_244_" class="st10" x1="538.36" y1="481.55" x2="531.09" y2="474.83"/>
					<line id="XMLID_245_" class="st10" x1="545.24" y1="475.18" x2="541.61" y2="471.82"/>
					<line id="XMLID_246_" class="st10" x1="552.13" y1="468.82" x2="544.86" y2="462.09"/>
					<line id="XMLID_247_" class="st10" x1="559.01" y1="462.45" x2="555.38" y2="459.09"/>
					<line id="XMLID_248_" class="st10" x1="565.9" y1="456.08" x2="558.63" y2="449.36"/>
					<line id="XMLID_249_" class="st10" x1="572.79" y1="449.71" x2="569.15" y2="446.35"/>
					<line id="XMLID_250_" class="st10" x1="579.67" y1="443.35" x2="572.4" y2="436.63"/>
					<line id="XMLID_251_" class="st10" x1="586.56" y1="436.98" x2="582.92" y2="433.62"/>
					<line id="XMLID_252_" class="st10" x1="593.44" y1="430.61" x2="586.18" y2="423.89"/>
					<line id="XMLID_253_" class="st10" x1="600.33" y1="424.24" x2="596.7" y2="420.88"/>
					<line id="XMLID_254_" class="st10" x1="607.22" y1="417.88" x2="599.95" y2="411.16"/>
					<line id="XMLID_255_" class="st10" x1="614.1" y1="411.51" x2="610.47" y2="408.15"/>
					<line id="XMLID_256_" class="st10" x1="620.99" y1="405.14" x2="613.72" y2="398.42"/>
					<line id="XMLID_257_" class="st10" x1="627.87" y1="398.77" x2="624.24" y2="395.41"/>
					<line id="XMLID_258_" class="st10" x1="634.76" y1="392.41" x2="627.49" y2="385.69"/>
					<line id="XMLID_259_" class="st10" x1="641.65" y1="386.04" x2="638.01" y2="382.68"/>
					<line id="XMLID_260_" class="st10" x1="648.53" y1="379.67" x2="641.26" y2="372.95"/>
					<line id="XMLID_261_" class="st10" x1="655.42" y1="373.3" x2="651.78" y2="369.94"/>
				</g>
				<path id="XMLID_265_" class="st4" d="M658.73,362.69c-30.43,32.46-62.84,63.34-97.06,92.4c-7.78,6.61-15.7,13.11-24.02,19.13
					c-13.98,10.13-29.53,19.44-46.7,24.16l-15.91,14.71l15.93,14.73l173.17-160.13L658.73,362.69z"/>
			</g>
			<g id="XMLID_262_">
				<g id="XMLID_277_">
					<g id="XMLID_264_">
						<path id="XMLID_266_" class="st6" d="M360.75,254.42l3.58-2.26c-11.62-30-88.14-131.37-97.83-125.25
							c-9.69,6.13,64.66,108.86,90.67,129.77L360.75,254.42z"/>
					</g>
					<path id="XMLID_267_" class="st4" d="M360.75,254.42l1.64-1.03c-15.53-27.53-91.46-129.28-95.89-126.47
						c-4.43,2.8,70.51,105.17,92.61,128.54L360.75,254.42z"/>
				</g>
				<g id="XMLID_276_">
					<polygon id="XMLID_269_" class="st3" points="360.75,254.42 357.17,256.68 369.01,265.59 364.32,252.15 					"/>
					<polygon id="XMLID_271_" class="st5" points="369.01,265.59 366.67,258.87 363.09,261.14 					"/>
				</g>
				<g id="XMLID_263_">
					<g id="XMLID_270_">
						<path id="XMLID_272_" class="st5" d="M270.52,123.35l-9.07,5.73c-0.36,0.23-0.45,0.68-0.21,1.01l6.2,8.39
							c0.25,0.33,0.73,0.42,1.09,0.19l9.07-5.73c0.36-0.23,0.45-0.68,0.21-1.01l-6.2-8.39
							C271.37,123.21,270.88,123.13,270.52,123.35z"/>
						<path id="XMLID_274_" class="st4" d="M277.23,131.14l-0.95-1.29c-2.1,0.5-4.32,0.56-6.43,0.13c-1.77-0.36-3.45-1.05-4.93-2.01
							c-0.27-0.18-0.51-0.4-0.77-0.59l-1.83,1.16c-0.83,0.53-1.04,1.57-0.48,2.34l5.03,6.8c0.57,0.77,1.7,0.97,2.53,0.44l7.35-4.65
							C277.58,132.96,277.79,131.91,277.23,131.14z"/>
					</g>
					<g id="XMLID_273_">
						<path id="XMLID_275_" class="st3" d="M265.19,119.41l-5.78,3.65c-0.46,0.29-0.58,0.87-0.26,1.29l3.11,4.21l7.44-4.71
							l-3.11-4.21C266.28,119.23,265.65,119.12,265.19,119.41z"/>
						<path id="XMLID_278_" class="st4" d="M268.54,122.29c-0.15,0.1-0.3,0.2-0.45,0.29c-1.26,0.77-2.88,1.01-4.34,0.66
							c-0.98-0.24-1.76-0.74-2.49-1.34l-0.75,0.47c-1.07,0.67-1.34,2.02-0.61,3l2.36,3.2l7.44-4.71L268.54,122.29z"/>
					</g>
				</g>
			</g>
			<g id="XMLID_293_">
				<path id="XMLID_207_" class="st5" d="M806.94,933.9c-4.87-0.28-121.78,82.19-122.76,86.61
					c-1.84,8.19,125.5,157.21,135.99,162.41c5.04,2.5,121.53-79.69,120.26-84.84C937.77,1087.36,815.97,934.43,806.94,933.9z"/>
				<path id="XMLID_189_" class="st2" d="M807.66,948.06c-4.32-0.25-108.04,72.92-108.92,76.84
					c-1.63,7.27,111.35,139.49,120.66,144.1c4.47,2.22,107.83-70.7,106.7-75.27C923.74,1084.21,815.68,948.52,807.66,948.06z"/>
				<g id="XMLID_213_">
					<path id="XMLID_204_" class="st11" d="M734.68,1048.62c29.82-21.67,59.63-43.34,89.45-65.01"/>
					<path id="XMLID_284_" class="st11" d="M742.89,1058.58c29.82-21.67,59.63-43.34,89.45-65.01"/>
					<path id="XMLID_285_" class="st11" d="M751.1,1068.53c29.82-21.67,59.63-43.34,89.45-65.01"/>
					<path id="XMLID_286_" class="st11" d="M759.31,1078.49c29.82-21.67,59.63-43.34,89.45-65.01"/>
					<path id="XMLID_288_" class="st11" d="M767.53,1088.44c29.82-21.67,59.63-43.34,89.45-65.01"/>
					<path id="XMLID_290_" class="st11" d="M775.74,1098.4c29.82-21.67,59.63-43.34,89.45-65.01"/>
					<path id="XMLID_291_" class="st11" d="M783.95,1108.35c29.82-21.67,59.63-43.34,89.45-65.01"/>
					<path id="XMLID_297_" class="st4" d="M940.42,1098.09c-0.92-3.74-16.34-24.77-36.4-50.6c-4.88,3.69-9.63,7.55-14.34,11.37
						c-15.12,12.28-30.83,24.79-49.88,30.8c-30.8,9.72-65.76,0.45-91.98-17.37c-17.45-11.86-29-27.21-43.39-41.73
						c-4.64-4.69-10.7-9.64-17.43-12.93c-1.73,1.49-2.74,2.5-2.82,2.89c-1.84,8.19,125.5,157.21,135.99,162.41
						C825.2,1185.42,941.69,1103.24,940.42,1098.09z"/>
				</g>
				<path id="XMLID_214_" class="st6" d="M771.39,949.81c-0.95-0.03-4.23,1.7-8.79,4.46c-3.08-3.66-7.21-7.06-8.73-7.11
					c-2.9-0.09-38.52,24.46-38.47,27.14c0.05,3.04,2.3,6.53,5.05,9.41c-4.23,3.43-6.94,6.01-6.92,6.92
					c0.14,8.58,11.94,19.61,18.42,22.32c6.48,2.71,55.31-35.1,57.87-40.82C792.36,966.41,775.5,949.94,771.39,949.81z"/>
				<path id="XMLID_306_" class="st4" d="M773.98,963.86c-7.56,6.07-17.38,9.68-27.38,10.08c-8.59,0.34-17.25-1.72-24.65-5.76
					c-3.91,3.04-6.56,5.41-6.55,6.14c0.05,3.04,2.3,6.53,5.05,9.41c-4.23,3.43-6.94,6.01-6.92,6.92
					c0.14,8.58,11.94,19.61,18.42,22.32c6.48,2.71,55.31-35.1,57.87-40.82c1.36-3.05-2.8-9.16-7.6-14.21
					C779.19,959.3,776.58,961.76,773.98,963.86z"/>
			</g>
			<g id="XMLID_294_">
				<path id="XMLID_305_" class="st5" d="M1277.25,1055.49c-0.93-1.78-9.23,0.38-18.07,3.82c-4.31-7.98-9.19-14.61-11.74-13.48
					c-2.54,1.13-0.02,8.72,4,16.77c-8.57,3.97-15.66,8.45-14.44,10.79c1.23,2.36,9.52-0.01,18.27-3.75
					c4.58,7.79,9.62,14.27,11.54,13.41c1.93-0.86-0.43-8.61-4.18-16.83C1271.1,1061.97,1278.18,1057.28,1277.25,1055.49z"/>
				<path id="XMLID_298_" class="st6" d="M1304.84,1043.22c2.8,5.38,42.38-13.82,40.26-17.91
					C1342.97,1021.23,1302.04,1037.84,1304.84,1043.22z"/>
				<g id="XMLID_302_">
					<path id="XMLID_301_" class="st3" d="M1343.82,1104.03c6.09,1.97,19.4-37.48,14.77-38.98
						C1353.97,1063.55,1337.73,1102.05,1343.82,1104.03z"/>
					<path id="XMLID_300_" class="st3" d="M1336.73,1075.14c-7.07,1.04-6.26,12.03,1.91,10.96
						C1346.98,1085,1345.12,1073.91,1336.73,1075.14z"/>
				</g>
			</g>
			<g id="XMLID_219_">
				<path id="XMLID_226_" class="st5" d="M622.98,837.46c0.71-1.86-6.81-5.77-15.7-9.12c3.05-8.46,4.67-16.34,2-17.21
					c-2.66-0.86-6.68,6.16-10,14.47c-9.09-2.79-17.54-4.27-18.47-1.81c-0.94,2.47,6.74,6.22,15.79,9.29
					c-2.72,8.51-4.11,16.38-2.1,17.03c2.03,0.66,6.28-6.37,9.91-14.64C613.68,838.02,622.27,839.33,622.98,837.46z"/>
				<path id="XMLID_225_" class="st6" d="M651.87,846.82c-2.13,5.63,40.54,17.93,42.16,13.66C695.65,856.2,654,841.19,651.87,846.82
					z"/>
				<path id="XMLID_224_" class="st6" d="M587.56,885.03c8.43-4.24,15.43-8.89,14.5-10.67c-0.93-1.79-9.31,0.4-18.2,3.87
					c-4.6-7.84-9.67-14.39-11.61-13.53c-1.92,0.86,0.41,8.53,4.13,16.71c-8.63,3.98-15.8,8.5-14.57,10.86
					c1.22,2.34,9.43,0.02,18.14-3.7c4.29,7.92,9.14,14.48,11.67,13.35C594.17,900.79,591.61,893.12,587.56,885.03z"/>
				<g id="XMLID_220_">
					<path id="XMLID_223_" class="st3" d="M632.93,915.31c2.8,5.38,42.38-13.82,40.26-17.91
						C671.07,893.32,630.14,909.93,632.93,915.31z"/>
					<path id="XMLID_222_" class="st3" d="M650.01,890.24c-5.79-3.89-13.63,4.42-7.03,9C649.72,903.92,656.89,894.86,650.01,890.24z
						"/>
					<path id="XMLID_221_" class="st3" d="M662.23,913.73c-5.79-3.89-13.63,4.42-7.03,9C661.94,927.41,669.11,918.35,662.23,913.73z
						"/>
				</g>
			</g>
			<g id="XMLID_29_">
				<path id="XMLID_66_" class="st5" d="M433.59,101.2c1.17-1.65-5.12-7.11-12.88-12.32c5.15-7.54,8.77-14.83,6.4-16.26
					c-2.36-1.42-8.08,4.5-13.45,11.84c-8.11-4.73-15.92-8.02-17.46-5.84c-1.55,2.19,4.93,7.53,12.92,12.52
					c-4.84,7.66-8.23,14.99-6.44,16.07c1.8,1.09,7.75-4.79,13.41-12.02C424.42,99.69,432.42,102.86,433.59,101.2z"/>
				<path id="XMLID_65_" class="st6" d="M459.22,116.68c-3.53,5,34.72,26.38,37.4,22.59C499.29,135.48,462.75,111.69,459.22,116.68z
					"/>
				<path id="XMLID_64_" class="st6" d="M386.89,139.55c9.28-2.25,17.28-5.22,16.84-7.15c-0.44-1.94-9.14-1.68-18.67-0.27
					c-2.44-8.63-5.67-16.11-7.77-15.7c-2.09,0.41-1.81,8.38-0.32,17.14c-9.41,1.96-17.54,4.75-16.96,7.31
					c0.58,2.55,9.16,2.1,18.57,0.43c2.12,8.64,5.12,16.08,7.88,15.55C389.23,156.31,388.73,148.3,386.89,139.55z"/>
				<g id="XMLID_59_">
					<path id="XMLID_63_" class="st3" d="M423.11,178.99c1.32,5.84,44.72-4.04,43.72-8.48
						C465.82,166.08,421.78,173.15,423.11,178.99z"/>
					<path id="XMLID_61_" class="st3" d="M446.18,158.43c-4.62-5.06-14.38,1.27-9.15,7.18
						C442.36,171.65,451.66,164.44,446.18,158.43z"/>
					<path id="XMLID_60_" class="st3" d="M451.96,183.95c-4.62-5.06-14.38,1.27-9.15,7.18
						C448.14,197.16,457.44,189.95,451.96,183.95z"/>
				</g>
			</g>
			<g id="XMLID_304_">
				<path id="XMLID_340_" class="st2" d="M149.93,729.21c-2.49-2-72.45-2.03-77.28-0.11l-0.02-0.02
					c-1.07,0.64-26.2,15.9-39.84,36.79c-0.88,0.94-2.68,5.08-2.12,35.12c0.21,11.13,1.03,33.05,2.68,36.41
					c0.46,0.93,1.31,2.66,38.31,2.66c0.1,0,0.2,0,0.29,0c29.35-0.01,35.86-1.06,37.54-1.99l0,0c25.74-14.58,38.6-34.72,39.92-36.86
					c0.07-0.09,0.12-0.19,0.16-0.27c1.65-3.35,2.48-25.28,2.68-36.41C152.88,731.58,150.66,729.8,149.93,729.21z M146.72,799.22
					c-2.63,0.63-14.84,1.27-33.87,1.3c0.42-23.5-0.61-30.93-1.5-33.46c3.33-3.82,19.48-21.93,36.66-34.17
					C149.79,742.66,148.94,792.29,146.72,799.22z M144.65,731.4c-17.1,12.51-32.86,30.22-36,33.83c-5.16-0.7-20.02-1.06-35.22-1.08
					c-0.34-18.57,0.33-30.09,1.22-32.47C80.72,730.67,130.62,730.58,144.65,731.4z M70.86,733.99c-0.62,4.39-1.08,13.02-0.76,30.16
					c-13.22,0.02-26.18,0.3-32.73,0.83C47.75,750.43,63.77,738.76,70.86,733.99z M39.36,836.11c0.55-0.32,1.1-0.65,1.66-0.99
					l-1.86-2.56c-1.09,0.68-2.16,1.29-3.23,1.87c-2.1-10.72-2.77-60.83-0.7-66.3c3.23-0.54,18.89-0.81,34.94-0.83l0.02,0.8
					l3.34-0.07l-0.02-0.73c16,0.02,31.57,0.29,34.79,0.83c1.06,2.81,1.4,17.41,1.19,32.39l-0.84,0l-0.01,3.09l0.8,0
					c-0.27,14.5-1.04,28.63-2.15,32.08C101.35,837.21,53.24,837.35,39.36,836.11z M111.03,833.52c0.98-6.94,1.53-20.73,1.75-29.91
					c18.05-0.03,27.14-0.46,31.77-1.01C140.24,808.62,129.12,822.44,111.03,833.52z"/>
				<path id="XMLID_345_" class="st2" d="M73.84,777.9c-0.07-1.61-0.13-3.26-0.18-4.93l-3.34,0.09c0.06,1.68,0.12,3.34,0.19,4.96
					L73.84,777.9z"/>
				<path id="XMLID_346_" class="st2" d="M71.04,787.93l3.33-0.19c-0.1-1.55-0.2-3.2-0.29-4.92l-3.33,0.15
					C70.84,784.71,70.94,786.37,71.04,787.93z"/>
				<path id="XMLID_347_" class="st2" d="M72.03,797.91l3.3-0.44c-0.19-1.24-0.38-2.86-0.57-4.83l-3.32,0.26
					C71.63,794.93,71.82,796.61,72.03,797.91z"/>
				<path id="XMLID_348_" class="st2" d="M97.93,803.5c1.75,0.03,3.54,0.05,5.37,0.07l0.03-3.09c-1.81-0.02-3.6-0.04-5.34-0.07
					L97.93,803.5z"/>
				<path id="XMLID_349_" class="st2" d="M76.35,802.47c1.3,0.18,3.13,0.34,5.46,0.49l0.22-3.08c-2.24-0.14-3.98-0.29-5.19-0.46
					L76.35,802.47z"/>
				<path id="XMLID_350_" class="st2" d="M87.19,803.21c1.68,0.06,3.48,0.12,5.37,0.17l0.09-3.09c-1.87-0.05-3.65-0.11-5.32-0.17
					L87.19,803.21z"/>
				<path id="XMLID_351_" class="st2" d="M70.07,803.21l2.7,1.81c1.85-2.36,2.88-3.81,2.92-3.87l-2.79-1.69
					C72.9,799.48,71.88,800.92,70.07,803.21z"/>
				<path id="XMLID_352_" class="st2" d="M64.02,810.5l2.59,1.95c1.14-1.29,2.19-2.53,3.14-3.67l-2.64-1.88
					C66.17,808.01,65.13,809.22,64.02,810.5z"/>
				<path id="XMLID_353_" class="st2" d="M50.59,823.97l2.29,2.24c1.24-1.08,2.45-2.18,3.62-3.29l-2.38-2.16
					C52.98,821.84,51.8,822.91,50.59,823.97z"/>
				<path id="XMLID_354_" class="st2" d="M57.53,817.44l2.46,2.09c1.17-1.18,2.29-2.35,3.36-3.5l-2.53-2.02
					C59.78,815.14,58.68,816.29,57.53,817.44z"/>
				<path id="XMLID_355_" class="st2" d="M43.12,829.91l2.04,2.44c1.3-0.93,2.63-1.93,3.95-2.98l-2.18-2.34
					C45.65,828.04,44.37,829.01,43.12,829.91z"/>
			</g>
			<g id="XMLID_125_">
				<path id="XMLID_185_" class="st2" d="M1195.22,798.15c-2.49-2-72.45-2.03-77.28-0.11l-0.02-0.02
					c-1.07,0.64-26.2,15.9-39.84,36.79c-0.88,0.94-2.68,5.08-2.12,35.12c0.21,11.13,1.03,33.05,2.68,36.41
					c0.46,0.93,1.31,2.66,38.31,2.66c0.1,0,0.2,0,0.29,0c29.35-0.01,35.86-1.06,37.54-1.99l0,0c25.74-14.58,38.6-34.72,39.92-36.86
					c0.07-0.09,0.12-0.19,0.16-0.27c1.65-3.35,2.48-25.28,2.68-36.41C1198.18,800.52,1195.95,798.73,1195.22,798.15z
					 M1192.02,868.15c-2.63,0.63-14.84,1.27-33.87,1.3c0.42-23.5-0.61-30.93-1.5-33.46c3.33-3.82,19.48-21.93,36.66-34.17
					C1195.08,811.59,1194.24,861.23,1192.02,868.15z M1189.95,800.33c-17.1,12.51-32.86,30.22-36,33.83
					c-5.16-0.7-20.02-1.06-35.22-1.08c-0.34-18.57,0.33-30.09,1.22-32.47C1126.02,799.6,1175.91,799.51,1189.95,800.33z
					 M1116.16,802.93c-0.62,4.39-1.08,13.02-0.76,30.16c-13.22,0.02-26.18,0.3-32.73,0.83
					C1093.05,819.37,1109.07,807.69,1116.16,802.93z M1084.65,905.05c0.55-0.32,1.1-0.65,1.66-0.99l-1.86-2.56
					c-1.09,0.68-2.16,1.29-3.23,1.87c-2.1-10.72-2.77-60.83-0.7-66.3c3.23-0.54,18.89-0.81,34.94-0.83l0.02,0.8l3.34-0.07
					l-0.02-0.73c16,0.02,31.57,0.29,34.79,0.83c1.06,2.81,1.4,17.41,1.19,32.39l-0.84,0l-0.01,3.09l0.8,0
					c-0.27,14.5-1.04,28.63-2.15,32.08C1146.65,906.14,1098.54,906.29,1084.65,905.05z M1156.33,902.45
					c0.98-6.94,1.53-20.73,1.75-29.91c18.05-0.03,27.14-0.46,31.77-1.01C1185.54,877.55,1174.41,891.38,1156.33,902.45z"/>
				<path id="XMLID_184_" class="st2" d="M1119.14,846.83c-0.07-1.61-0.13-3.26-0.18-4.93l-3.34,0.09c0.06,1.68,0.12,3.34,0.19,4.96
					L1119.14,846.83z"/>
				<path id="XMLID_183_" class="st2" d="M1116.34,856.87l3.33-0.19c-0.1-1.55-0.2-3.2-0.29-4.92l-3.33,0.15
					C1116.14,853.65,1116.24,855.31,1116.34,856.87z"/>
				<path id="XMLID_182_" class="st2" d="M1117.33,866.84l3.3-0.44c-0.19-1.24-0.38-2.86-0.57-4.83l-3.32,0.26
					C1116.92,863.86,1117.12,865.55,1117.33,866.84z"/>
				<path id="XMLID_179_" class="st2" d="M1143.22,872.44c1.75,0.03,3.54,0.05,5.37,0.07l0.03-3.09c-1.81-0.02-3.6-0.04-5.34-0.07
					L1143.22,872.44z"/>
				<path id="XMLID_177_" class="st2" d="M1121.65,871.4c1.3,0.18,3.13,0.34,5.46,0.49l0.22-3.08c-2.24-0.14-3.98-0.29-5.19-0.46
					L1121.65,871.4z"/>
				<path id="XMLID_176_" class="st2" d="M1132.49,872.15c1.68,0.06,3.48,0.12,5.37,0.17l0.09-3.09c-1.87-0.05-3.65-0.11-5.32-0.17
					L1132.49,872.15z"/>
				<path id="XMLID_175_" class="st2" d="M1115.37,872.15l2.7,1.81c1.85-2.36,2.88-3.81,2.92-3.87l-2.79-1.69
					C1118.2,868.41,1117.17,869.85,1115.37,872.15z"/>
				<path id="XMLID_174_" class="st2" d="M1109.31,879.43l2.59,1.95c1.14-1.29,2.19-2.53,3.14-3.67l-2.64-1.88
					C1111.46,876.95,1110.43,878.16,1109.31,879.43z"/>
				<path id="XMLID_172_" class="st2" d="M1095.89,892.91l2.29,2.24c1.24-1.08,2.45-2.18,3.62-3.28l-2.38-2.16
					C1098.28,890.78,1097.1,891.85,1095.89,892.91z"/>
				<path id="XMLID_171_" class="st2" d="M1102.83,886.38l2.46,2.09c1.17-1.18,2.29-2.35,3.36-3.5l-2.53-2.02
					C1105.08,884.07,1103.98,885.22,1102.83,886.38z"/>
				<path id="XMLID_126_" class="st2" d="M1088.41,898.84l2.04,2.44c1.3-0.93,2.63-1.93,3.95-2.98l-2.18-2.34
					C1090.95,896.98,1089.67,897.94,1088.41,898.84z"/>
			</g>
			<g id="XMLID_227_">
				<path id="XMLID_693_" class="st2" d="M345.02,309.29c-2.18-1.75-63.39-1.78-67.63-0.09l-0.01-0.02
					c-0.93,0.56-22.92,13.92-34.86,32.2c-0.77,0.82-2.34,4.45-1.85,30.73c0.18,9.74,0.91,28.92,2.35,31.86
					c0.4,0.82,1.15,2.33,33.53,2.33c0.09,0,0.17,0,0.26,0c25.69-0.01,31.38-0.93,32.85-1.74l0,0
					c22.52-12.76,33.77-30.38,34.93-32.26c0.06-0.08,0.1-0.16,0.14-0.24c1.44-2.93,2.17-22.12,2.35-31.86
					C347.61,311.36,345.66,309.8,345.02,309.29z M342.22,370.55c-2.3,0.55-12.99,1.11-29.64,1.14c0.37-20.56-0.54-27.07-1.31-29.28
					c2.92-3.34,17.05-19.19,32.08-29.9C344.9,321.05,344.16,364.49,342.22,370.55z M340.41,311.2
					c-14.96,10.95-28.75,26.45-31.5,29.6c-4.51-0.61-17.52-0.92-30.82-0.95c-0.29-16.25,0.29-26.33,1.06-28.42
					C284.47,310.56,328.13,310.48,340.41,311.2z M275.84,313.47c-0.54,3.85-0.95,11.39-0.67,26.39
					c-11.57,0.02-22.91,0.26-28.64,0.72C255.61,327.86,269.63,317.64,275.84,313.47z M248.27,402.83c0.48-0.28,0.97-0.57,1.45-0.87
					l-1.63-2.24c-0.95,0.59-1.89,1.13-2.82,1.64c-1.84-9.38-2.42-53.23-0.62-58.02c2.83-0.47,16.53-0.71,30.57-0.72l0.02,0.7
					l2.92-0.06l-0.01-0.64c14,0.02,27.63,0.26,30.44,0.72c0.93,2.46,1.22,15.23,1.04,28.34l-0.73,0l-0.01,2.7l0.7,0
					c-0.24,12.69-0.91,25.05-1.88,28.07C302.52,403.79,260.42,403.92,248.27,402.83z M310.99,400.56
					c0.85-6.08,1.34-18.14,1.53-26.17c15.8-0.02,23.75-0.4,27.8-0.88C336.55,378.77,326.81,390.87,310.99,400.56z"/>
				<path id="XMLID_692_" class="st2" d="M278.45,351.89c-0.06-1.41-0.11-2.85-0.16-4.31l-2.92,0.08c0.05,1.47,0.1,2.92,0.16,4.34
					L278.45,351.89z"/>
				<path id="XMLID_691_" class="st2" d="M276,360.67l2.92-0.17c-0.09-1.36-0.18-2.8-0.26-4.31l-2.92,0.13
					C275.82,357.85,275.91,359.3,276,360.67z"/>
				<path id="XMLID_268_" class="st2" d="M276.86,369.4l2.89-0.39c-0.17-1.08-0.34-2.5-0.49-4.22l-2.91,0.23
					C276.51,366.79,276.68,368.27,276.86,369.4z"/>
				<path id="XMLID_235_" class="st2" d="M299.52,374.29c1.53,0.03,3.1,0.05,4.69,0.06l0.03-2.7c-1.59-0.01-3.15-0.04-4.67-0.06
					L299.52,374.29z"/>
				<path id="XMLID_234_" class="st2" d="M280.64,373.39c1.13,0.16,2.74,0.3,4.78,0.43l0.2-2.7c-1.96-0.12-3.49-0.26-4.55-0.4
					L280.64,373.39z"/>
				<path id="XMLID_233_" class="st2" d="M290.13,374.04c1.47,0.06,3.05,0.11,4.7,0.15l0.08-2.7c-1.64-0.04-3.2-0.09-4.66-0.15
					L290.13,374.04z"/>
				<path id="XMLID_232_" class="st2" d="M275.15,374.04l2.36,1.58c1.62-2.06,2.52-3.33,2.56-3.39l-2.44-1.48
					C277.62,370.77,276.73,372.03,275.15,374.04z"/>
				<path id="XMLID_231_" class="st2" d="M269.85,380.41l2.26,1.7c1-1.13,1.92-2.21,2.75-3.21l-2.31-1.65
					C271.73,378.24,270.83,379.3,269.85,380.41z"/>
				<path id="XMLID_230_" class="st2" d="M258.1,392.21l2.01,1.96c1.09-0.95,2.14-1.91,3.17-2.87l-2.08-1.89
					C260.19,390.34,259.16,391.28,258.1,392.21z"/>
				<path id="XMLID_229_" class="st2" d="M264.17,386.5l2.15,1.83c1.03-1.03,2.01-2.06,2.94-3.06l-2.21-1.76
					C266.14,384.48,265.18,385.48,264.17,386.5z"/>
				<path id="XMLID_228_" class="st2" d="M251.56,397.4l1.79,2.14c1.14-0.81,2.3-1.69,3.45-2.61l-1.91-2.05
					C253.78,395.77,252.66,396.61,251.56,397.4z"/>
			</g>
			<g id="XMLID_652_">
				<g id="XMLID_651_">
					<g id="XMLID_630_">
						<path id="XMLID_633_" class="st2" d="M565.76,565.18c-3.45-11.83-67.25,7.13-65.03,16.75c0.48,2.05,3.9,3,8.95,3.1
							c2.63,25.11,14.25,110.35,50.11,103.25c36.89-7.29,7.12-94.02-0.69-115.07C563.82,570.6,566.53,567.82,565.76,565.18z"/>
						<path id="XMLID_632_" class="st3" d="M551.23,592.56c-7.35,1.25-14.04,4.98-21.43,6.01c-3.5,0.49-6.94,0.53-10.35,0.77
							c-0.87,0.06-1.51,0.78-1.41,1.58c2.98,24.47,12.89,82.66,39.45,77.4c26.51-5.24,9.93-61.82,1.79-85.38
							c-0.21-0.61-0.84-1.02-1.53-0.99C555.56,592.04,553.38,592.19,551.23,592.56z"/>
						<path id="XMLID_631_" class="st4" d="M577.66,661.3c-8.22,4.42-18.32,6.75-26.89,3.17c-8.11-3.39-12.9-11.18-16.35-18.77
							c-9.27-20.39-12.81-42.98-10.17-64.96c-3.75,0.09-7.39-2.41-8.4-5.75c-0.47-1.58-0.14-3.09,0.51-4.54
							c-9.53,3.85-16.39,8.2-15.64,11.46c0.48,2.05,3.9,3,8.95,3.1c2.63,25.11,14.25,110.35,50.11,103.25
							C571.7,685.93,576.65,675.31,577.66,661.3z"/>
					</g>
					<g id="XMLID_634_">
						<path id="XMLID_637_" class="st2" d="M661.55,546.23c-3.45-11.83-67.25,7.13-65.03,16.75c0.47,2.05,3.9,3,8.95,3.1
							c2.63,25.11,14.25,110.34,50.11,103.25c36.89-7.29,7.12-94.02-0.69-115.07C659.6,551.66,662.32,548.88,661.55,546.23z"/>
						<path id="XMLID_636_" class="st6" d="M647.01,573.62c-7.35,1.25-14.04,4.98-21.43,6.01c-3.5,0.49-6.95,0.53-10.35,0.77
							c-0.87,0.06-1.51,0.78-1.41,1.58c2.98,24.47,12.89,82.66,39.46,77.4c26.51-5.24,9.93-61.82,1.79-85.38
							c-0.21-0.61-0.84-1.02-1.53-0.99C651.35,573.1,649.17,573.25,647.01,573.62z"/>
						<path id="XMLID_635_" class="st4" d="M673.44,642.36c-8.22,4.42-18.32,6.75-26.89,3.17c-8.11-3.39-12.9-11.18-16.35-18.77
							c-9.27-20.39-12.81-42.98-10.17-64.96c-3.75,0.09-7.39-2.41-8.4-5.75c-0.47-1.58-0.14-3.09,0.51-4.54
							c-9.53,3.85-16.39,8.19-15.64,11.46c0.47,2.05,3.9,3,8.95,3.1c2.63,25.11,14.25,110.34,50.11,103.25
							C667.48,666.99,672.44,656.37,673.44,642.36z"/>
					</g>
					<g id="XMLID_638_">
						<path id="XMLID_641_" class="st2" d="M757.33,527.29c-3.45-11.83-67.25,7.13-65.03,16.75c0.47,2.05,3.9,3,8.95,3.1
							c2.63,25.11,14.25,110.34,50.11,103.25c36.89-7.29,7.12-94.02-0.69-115.07C755.39,532.72,758.11,529.94,757.33,527.29z"/>
						<path id="XMLID_640_" class="st5" d="M742.8,554.68c-7.35,1.25-14.04,4.98-21.43,6.01c-3.5,0.49-6.94,0.53-10.35,0.77
							c-0.87,0.06-1.51,0.78-1.41,1.58c2.98,24.47,12.89,82.66,39.45,77.4c26.51-5.24,9.93-61.82,1.79-85.38
							c-0.21-0.61-0.84-1.02-1.53-0.99C747.13,554.16,744.95,554.31,742.8,554.68z"/>
						<path id="XMLID_639_" class="st4" d="M769.23,623.42c-8.22,4.42-18.32,6.75-26.89,3.17c-8.11-3.39-12.9-11.18-16.35-18.77
							c-9.27-20.39-12.81-42.98-10.17-64.96c-3.75,0.09-7.39-2.41-8.4-5.75c-0.47-1.58-0.14-3.09,0.51-4.54
							c-9.53,3.85-16.39,8.2-15.64,11.46c0.47,2.05,3.9,3,8.95,3.1c2.63,25.11,14.25,110.34,50.11,103.25
							C763.27,648.05,768.23,637.43,769.23,623.42z"/>
					</g>
				</g>
				<g id="XMLID_650_">
					<g id="XMLID_642_">
						<path id="XMLID_299_" class="st2" d="M461.76,553.12c-10.75,2.13,40.72,208.95,47.99,207.51
							C517.03,759.2,472.51,551,461.76,553.12z"/>
						<path id="XMLID_645_" class="st4" d="M462.09,553.16c-0.11-0.02-0.22-0.05-0.33-0.03c-10.75,2.13,40.72,208.95,47.99,207.51
							c0.95-0.19,1.01-3.97,0.37-10.35C500.85,736.09,464.5,591.46,462.09,553.16z"/>
					</g>
					<g id="XMLID_644_">
						<path id="XMLID_647_" class="st2" d="M781.02,489.99c-10.75,2.13,40.72,208.95,47.99,207.51
							C836.29,696.06,791.78,487.86,781.02,489.99z"/>
						<path id="XMLID_646_" class="st4" d="M781.35,490.02c-0.11-0.02-0.22-0.05-0.33-0.03c-10.75,2.13,40.72,208.95,47.99,207.51
							c0.96-0.19,1.01-3.97,0.37-10.35C820.11,672.96,783.76,528.32,781.35,490.02z"/>
					</g>
					<g id="XMLID_643_">
						<path id="XMLID_649_" class="st2" d="M478.76,627.3c3.92,17.09,326.17-51.88,323.52-63.44
							C799.63,552.31,474.84,610.22,478.76,627.3z"/>
						<path id="XMLID_648_" class="st4" d="M478.79,626.79c-0.02,0.17-0.07,0.35-0.03,0.51c3.92,17.09,326.17-51.88,323.52-63.44
							c-0.35-1.52-6.29-1.83-16.28-1.2C764.19,576.46,538.85,625.25,478.79,626.79z"/>
					</g>
				</g>
			</g>
		</g>
		<g id="XMLID_296_" class="st1">
			<path id="XMLID_18_" class="st2" d="M469.22,827.56c-13.42-2.66-22.59,17.94-3.28,21.73
				C485.25,853.07,484.69,830.62,469.22,827.56z"/>
			<path id="XMLID_707_" class="st2" d="M858.43,860.83c-13.42-2.66-22.59,17.94-3.28,21.73S873.9,863.89,858.43,860.83z"/>
			<path id="XMLID_711_" class="st2" d="M959.46,1044.98c-13.42-2.66-22.59,17.94-3.28,21.73
				C975.49,1070.49,974.93,1048.04,959.46,1044.98z"/>
			<path id="XMLID_719_" class="st2" d="M1225.44,893.26c-13.42-2.66-22.59,17.94-3.28,21.73
				C1241.46,918.77,1240.91,896.32,1225.44,893.26z"/>
			<path id="XMLID_725_" class="st2" d="M1659.14,1044.98c-13.42-2.66-22.59,17.94-3.28,21.73
				C1675.16,1070.49,1674.61,1048.04,1659.14,1044.98z"/>
			<path id="XMLID_728_" class="st2" d="M1556.74,780.33c-13.42-2.66-22.59,17.94-3.28,21.73
				C1572.77,805.85,1572.21,783.39,1556.74,780.33z"/>
			<path id="XMLID_312_" class="st2" d="M1704.78,785.66c-13.42-2.66-22.59,17.94-3.28,21.73
				C1720.81,811.18,1720.25,788.72,1704.78,785.66z"/>
			<path id="XMLID_704_" class="st2" d="M316.44,863.26c-13.42-2.66-22.59,17.94-3.28,21.73
				C332.46,888.78,331.91,866.32,316.44,863.26z"/>
			<path id="XMLID_741_" class="st2" d="M278.37,542.15c-13.42-2.66-22.59,17.94-3.28,21.73
				C294.39,567.66,293.84,545.21,278.37,542.15z"/>
			<path id="XMLID_754_" class="st2" d="M282.1,244.49c-13.42-2.66-22.59,17.94-3.28,21.73C298.13,270,297.57,247.55,282.1,244.49z"
				/>
			<path id="XMLID_758_" class="st2" d="M397.43,223.82c-13.42-2.66-22.59,17.94-3.28,21.73
				C413.45,249.34,412.9,226.89,397.43,223.82z"/>
			<path id="XMLID_761_" class="st2" d="M310.67,50.63c-13.42-2.66-22.59,17.94-3.28,21.73C326.7,76.14,326.14,53.69,310.67,50.63z"
				/>
			<path id="XMLID_748_" class="st2" d="M653.24,419.65c-13.42-2.66-22.59,17.94-3.28,21.73S668.71,422.71,653.24,419.65z"/>
			<path id="XMLID_738_" class="st2" d="M57.05,686.55c-13.42-2.66-22.59,17.94-3.28,21.73C73.08,712.06,72.52,689.61,57.05,686.55z
				"/>
			<path id="XMLID_700_" class="st2" d="M430.84,763.15c-9.4-1.86-15.81,12.56-2.3,15.21C442.06,781.01,441.67,765.29,430.84,763.15
				z"/>
			<path id="XMLID_731_" class="st2" d="M562.7,793.43c-9.4-1.86-15.81,12.56-2.3,15.21C573.91,811.29,573.52,795.58,562.7,793.43z"
				/>
			<path id="XMLID_316_" class="st2" d="M944.55,712.23c-9.4-1.86-15.81,12.56-2.3,15.21C955.77,730.09,955.38,714.37,944.55,712.23
				z"/>
			<path id="XMLID_317_" class="st2" d="M1125.05,751.96c-9.4-1.86-15.81,12.56-2.3,15.21
				C1136.27,769.82,1135.88,754.1,1125.05,751.96z"/>
			<path id="XMLID_714_" class="st2" d="M668.73,965.85c-9.4-1.86-15.81,12.56-2.3,15.21C679.95,983.71,679.56,968,668.73,965.85z"
				/>
			<path id="XMLID_702_" class="st2" d="M194.06,889.92c-9.4-1.86-15.81,12.56-2.3,15.21C205.28,907.78,204.89,892.07,194.06,889.92
				z"/>
			<path id="XMLID_736_" class="st2" d="M157.52,665.39c-9.4-1.86-15.81,12.56-2.3,15.21C168.74,683.25,168.35,667.53,157.52,665.39
				z"/>
			<path id="XMLID_757_" class="st2" d="M498.06,194.81c-9.4-1.86-15.81,12.56-2.3,15.21C509.28,212.67,508.89,196.96,498.06,194.81
				z"/>
			<path id="XMLID_740_" class="st2" d="M233.7,605.4c-9.4-1.86-15.81,12.56-2.3,15.21S244.53,607.54,233.7,605.4z"/>
			<path id="XMLID_763_" class="st2" d="M233.7,108.73c-9.4-1.86-15.81,12.56-2.3,15.21S244.53,110.87,233.7,108.73z"/>
			<path id="XMLID_770_" class="st2" d="M580.69,78.71c-9.4-1.86-15.81,12.56-2.3,15.21C591.91,96.57,591.52,80.86,580.69,78.71z"/>
			<path id="XMLID_775_" class="st2" d="M51.61,147.68c-9.4-1.86-15.81,12.56-2.3,15.21C62.83,165.54,62.44,149.82,51.61,147.68z"/>
			<path id="XMLID_751_" class="st2" d="M19.17,367.95c-9.4-1.86-15.81,12.56-2.3,15.21C30.38,385.81,29.99,370.1,19.17,367.95z"/>
			<path id="XMLID_744_" class="st2" d="M396.99,398.62c-9.4-1.86-15.81,12.56-2.3,15.21S407.82,400.76,396.99,398.62z"/>
			<path id="XMLID_735_" class="st2" d="M259.12,1056.74c-9.4-1.86-15.81,12.56-2.3,15.21
				C270.34,1074.6,269.95,1058.89,259.12,1056.74z"/>
			<path id="XMLID_734_" class="st2" d="M20.38,1007.45c-9.4-1.86-15.81,12.56-2.3,15.21C31.6,1025.31,31.21,1009.59,20.38,1007.45z
				"/>
			<path id="XMLID_705_" class="st2" d="M752.82,875.18c-9.4-1.86-15.81,12.56-2.3,15.21C764.04,893.03,763.65,877.32,752.82,875.18
				z"/>
			<path id="XMLID_710_" class="st2" d="M902.3,947.37c-9.4-1.86-15.81,12.56-2.3,15.21C913.52,965.23,913.13,949.52,902.3,947.37z"
				/>
			<path id="XMLID_713_" class="st2" d="M1026.41,902.64c-9.4-1.86-15.81,12.56-2.3,15.21
				C1037.63,920.5,1037.24,904.78,1026.41,902.64z"/>
			<path id="XMLID_722_" class="st2" d="M1513.05,850.85c-9.4-1.86-15.81,12.56-2.3,15.21
				C1524.27,868.71,1523.88,853,1513.05,850.85z"/>
			<path id="XMLID_726_" class="st2" d="M1836.28,810.22c-9.4-1.86-15.81,12.56-2.3,15.21
				C1847.5,828.08,1847.11,812.36,1836.28,810.22z"/>
			<path id="XMLID_720_" class="st2" d="M1143.08,933.52c-9.4-1.86-15.81,12.56-2.3,15.21
				C1154.3,951.38,1153.91,935.66,1143.08,933.52z"/>
			<path id="XMLID_777_" class="st2" d="M1190.97,1036.49c-9.4-1.86-15.81,12.56-2.3,15.21
				C1202.19,1054.35,1201.8,1038.63,1190.97,1036.49z"/>
			<path id="XMLID_723_" class="st2" d="M1616.86,979.64c-9.4-1.86-15.81,12.56-2.3,15.21
				C1628.08,997.5,1627.69,981.78,1616.86,979.64z"/>
			<path id="XMLID_727_" class="st2" d="M1768.14,933.52c-9.4-1.86-15.81,12.56-2.3,15.21
				C1779.36,951.38,1778.97,935.66,1768.14,933.52z"/>
			<path id="XMLID_701_" class="st2" d="M656.15,754.15c-6.71-1.33-11.29,8.97-1.64,10.86
				C664.16,766.91,663.88,755.68,656.15,754.15z"/>
			<path id="XMLID_772_" class="st2" d="M545.97,719.77c-6.71-1.33-11.29,8.97-1.64,10.86C553.98,732.52,553.71,721.3,545.97,719.77
				z"/>
			<path id="XMLID_314_" class="st2" d="M870.58,673.18c-6.71-1.33-11.29,8.97-1.64,10.86C878.6,685.93,878.32,674.71,870.58,673.18
				z"/>
			<path id="XMLID_773_" class="st2" d="M731.47,680.83c-6.71-1.33-11.29,8.97-1.64,10.86S739.2,682.36,731.47,680.83z"/>
			<path id="XMLID_708_" class="st2" d="M902.01,769.02c-6.71-1.33-11.29,8.97-1.64,10.86S909.74,770.55,902.01,769.02z"/>
			<path id="XMLID_721_" class="st2" d="M1287.82,976.23c-6.71-1.33-11.29,8.97-1.64,10.86
				C1295.83,988.99,1295.56,977.76,1287.82,976.23z"/>
			<path id="XMLID_729_" class="st2" d="M1900.82,973.41c-6.71-1.33-11.29,8.97-1.64,10.86
				C1908.83,986.17,1908.55,974.94,1900.82,973.41z"/>
			<path id="XMLID_709_" class="st2" d="M959.72,997.17c-6.71-1.33-11.29,8.97-1.64,10.86
				C967.73,1009.93,967.45,998.7,959.72,997.17z"/>
			<path id="XMLID_712_" class="st2" d="M1051.82,993.68c-6.71-1.33-11.29,8.97-1.64,10.86
				C1059.84,1006.44,1059.56,995.21,1051.82,993.68z"/>
			<path id="XMLID_776_" class="st2" d="M1262.89,835.63c-6.71-1.33-11.29,8.97-1.64,10.86S1270.63,837.16,1262.89,835.63z"/>
			<path id="XMLID_778_" class="st2" d="M1382.93,1017.95c-6.71-1.33-11.29,8.97-1.64,10.86
				C1390.94,1030.71,1390.66,1019.48,1382.93,1017.95z"/>
			<path id="XMLID_779_" class="st2" d="M1445.51,769.02c-6.71-1.33-11.29,8.97-1.64,10.86S1453.25,770.55,1445.51,769.02z"/>
			<path id="XMLID_315_" class="st2" d="M1741.3,708.82c-6.71-1.33-11.29,8.97-1.64,10.86
				C1749.32,721.58,1749.04,710.35,1741.3,708.82z"/>
			<path id="XMLID_313_" class="st2" d="M1758.83,863.15c-6.71-1.33-11.29,8.97-1.64,10.86
				C1766.85,875.9,1766.57,864.68,1758.83,863.15z"/>
			<path id="XMLID_780_" class="st2" d="M1691.17,1006.65c-6.71-1.33-11.29,8.97-1.64,10.86S1698.91,1008.18,1691.17,1006.65z"/>
			<path id="XMLID_781_" class="st2" d="M1826.97,897c-6.71-1.33-11.29,8.97-1.64,10.86C1834.98,909.75,1834.71,898.53,1826.97,897z
				"/>
			<path id="XMLID_311_" class="st2" d="M1774.29,773.18c-6.71-1.33-11.29,8.97-1.64,10.86
				C1782.3,785.93,1782.02,774.71,1774.29,773.18z"/>
			<path id="XMLID_718_" class="st2" d="M1058.26,818.01c-6.71-1.33-11.29,8.97-1.64,10.86
				C1066.28,830.77,1066,819.54,1058.26,818.01z"/>
			<path id="XMLID_724_" class="st2" d="M1527.74,949.56c-6.71-1.33-11.29,8.97-1.64,10.86
				C1535.76,962.32,1535.48,951.1,1527.74,949.56z"/>
			<path id="XMLID_703_" class="st2" d="M200.21,801.22c-6.71-1.33-11.29,8.97-1.64,10.86
				C208.22,813.98,207.94,802.75,200.21,801.22z"/>
			<path id="XMLID_733_" class="st2" d="M101.36,868.74c-6.71-1.33-11.29,8.97-1.64,10.86C109.37,881.5,109.09,870.27,101.36,868.74
				z"/>
			<path id="XMLID_717_" class="st2" d="M391.23,1066.28c-6.71-1.33-11.29,8.97-1.64,10.86
				C399.24,1079.04,398.97,1067.81,391.23,1066.28z"/>
			<path id="XMLID_716_" class="st2" d="M239.85,967.81c-6.71-1.33-11.29,8.97-1.64,10.86
				C247.87,980.57,247.59,969.34,239.85,967.81z"/>
			<path id="XMLID_737_" class="st2" d="M11.07,645.34c-6.71-1.33-11.29,8.97-1.64,10.86C19.09,658.09,18.81,646.87,11.07,645.34z"
				/>
			<path id="XMLID_743_" class="st2" d="M461.02,469.7c-6.71-1.33-11.29,8.97-1.64,10.86C469.04,482.46,468.76,471.23,461.02,469.7z
				"/>
			<path id="XMLID_742_" class="st2" d="M216.26,472.86c-6.71-1.33-11.29,8.97-1.64,10.86
				C224.27,485.62,223.99,474.39,216.26,472.86z"/>
			<path id="XMLID_752_" class="st2" d="M168.55,409.04c-6.71-1.33-11.29,8.97-1.64,10.86
				C176.56,421.79,176.28,410.57,168.55,409.04z"/>
			<path id="XMLID_755_" class="st2" d="M434.46,285.1c-6.71-1.33-11.29,8.97-1.64,10.86S442.2,286.63,434.46,285.1z"/>
			<path id="XMLID_753_" class="st2" d="M61.84,413.94c-6.71-1.33-11.29,8.97-1.64,10.86S69.57,415.47,61.84,413.94z"/>
			<path id="XMLID_760_" class="st2" d="M72.81,325.05c-6.71-1.33-11.29,8.97-1.64,10.86C80.83,337.8,80.55,326.58,72.81,325.05z"/>
			<path id="XMLID_745_" class="st2" d="M368.23,447.24c-6.71-1.33-11.29,8.97-1.64,10.86S375.97,448.77,368.23,447.24z"/>
			<path id="XMLID_756_" class="st2" d="M374.67,325.04c-6.71-1.33-11.29,8.97-1.64,10.86S382.41,326.57,374.67,325.04z"/>
			<path id="XMLID_759_" class="st2" d="M230.13,189.17c-6.71-1.33-11.29,8.97-1.64,10.86C238.15,201.93,237.87,190.7,230.13,189.17
				z"/>
			<path id="XMLID_762_" class="st2" d="M168.55,27.47c-6.71-1.33-11.29,8.97-1.64,10.86C176.56,40.23,176.28,29,168.55,27.47z"/>
			<path id="XMLID_774_" class="st2" d="M136.45,137.83c-6.71-1.33-11.29,8.97-1.64,10.86
				C144.46,150.59,144.18,139.36,136.45,137.83z"/>
			<path id="XMLID_771_" class="st2" d="M497.48,84.38c-6.71-1.33-11.29,8.97-1.64,10.86S505.22,85.91,497.48,84.38z"/>
			<path id="XMLID_769_" class="st2" d="M420.02,21.88c-6.71-1.33-11.29,8.97-1.64,10.86C428.03,34.63,427.75,23.41,420.02,21.88z"
				/>
			<path id="XMLID_747_" class="st2" d="M535.45,417.08c-6.71-1.33-11.29,8.97-1.64,10.86
				C543.46,429.84,543.19,418.61,535.45,417.08z"/>
			<path id="XMLID_750_" class="st2" d="M562.4,488.81c-6.71-1.33-11.29,8.97-1.64,10.86S570.14,490.34,562.4,488.81z"/>
			<path id="XMLID_746_" class="st2" d="M563,347.48c-6.71-1.33-11.29,8.97-1.64,10.86C571.01,360.24,570.73,349.01,563,347.48z"/>
			<path id="XMLID_749_" class="st2" d="M635.49,514.27c-6.71-1.33-11.29,8.97-1.64,10.86C643.5,527.03,643.22,515.8,635.49,514.27z
				"/>
			<path id="XMLID_739_" class="st2" d="M383.69,650.93c-6.71-1.33-11.29,8.97-1.64,10.86C391.7,663.69,391.42,652.46,383.69,650.93
				z"/>
			<path id="XMLID_732_" class="st2" d="M18.87,860.9c-6.71-1.33-11.29,8.97-1.64,10.86C26.89,873.66,26.61,862.43,18.87,860.9z"/>
			<path id="XMLID_706_" class="st2" d="M457.98,673.18c-6.71-1.33-11.29,8.97-1.64,10.86C466,685.93,465.72,674.71,457.98,673.18z"
				/>
			<path id="XMLID_715_" class="st2" d="M538.08,976.23c-6.71-1.33-11.29,8.97-1.64,10.86
				C546.09,988.99,545.81,977.76,538.08,976.23z"/>
			<path id="XMLID_730_" class="st2" d="M649.26,1055.89c-6.71-1.33-11.29,8.97-1.64,10.86
				C657.27,1068.65,657,1057.42,649.26,1055.89z"/>
		</g>
	</g>
</g>
</svg>
